<svg xmlns="http://www.w3.org/2000/svg" viewBox="0 0 480 480">
<path d="M414.922,184c0,72.448-42.052,136.094-104.67,166.057c-1.114,0.533-2.29,0.786-3.448,0.786	c-8.462,0-11.132-11.546-3.458-15.218c58.06-27.783,95.576-87.299,95.576-151.624c0-4.418,3.582-8,8-8S414.922,179.582,414.922,184z M279.922,377.942c-4.418,0-8,3.582-8,8V448c0,8.822-7.178,16-16,16h-50c-8.822,0-16-7.178-16-16v-50.5h51c4.418,0,8-3.582,8-8	s-3.582-8-8-8h-51.183c-1.574-19.677-13.507-37.38-31.307-45.907c-58.02-27.795-95.51-87.298-95.51-151.593	c0-92.767,75.047-168,167.999-168c30.687,0,60.677,8.258,86.71,23.899c3.79,2.276,8.703,1.05,10.978-2.737	c2.275-3.788,1.05-8.702-2.737-10.978C298.117,9.51,265.404,0,230.921,0C129.327,0,46.922,82.191,46.922,184	c0,72.42,42.019,136.044,104.597,166.022c13.609,6.52,22.403,20.618,22.403,35.917V448c0,17.645,14.355,32,32,32h50	c17.645,0,32-14.355,32-32v-62.058C287.922,381.523,284.341,377.942,279.922,377.942z M374.873,151.984	c5.862,5.862,5.863,15.35-0.001,21.213c-5.86,5.861-15.35,5.863-21.212,0c-5.848-5.848-5.848-15.364,0-21.212	C359.52,146.122,369.01,146.12,374.873,151.984z M401.036,137.134c3.125-3.124,3.125-8.189,0-11.313	c-20.321-20.322-53.215-20.325-73.539,0c-5.056,5.055-1.405,13.657,5.657,13.657c2.047,0,4.095-0.781,5.657-2.343	c14.069-14.069,36.84-14.07,50.912,0C392.846,140.258,397.912,140.258,401.036,137.134z M430.735,96.123	c-36.737-36.737-96.196-36.741-132.936,0c-3.125,3.124-3.125,8.189,0,11.313c3.125,3.125,8.189,3.124,11.313,0	c30.483-30.483,79.822-30.487,110.309,0c3.124,3.124,8.189,3.124,11.313,0C433.859,104.312,433.859,99.247,430.735,96.123z M299.922,218c0,16.542-13.458,30-30,30h-14v92c0,4.418-3.582,8-8,8s-8-3.582-8-8v-92h-18v102c0,4.418-3.582,8-8,8s-8-3.582-8-8V248	h-14c-16.542,0-30-13.458-30-30s13.458-30,30-30s30,13.458,30,30v14h18v-14c0-16.542,13.458-30,30-30S299.922,201.458,299.922,218z M191.922,232h14v-14c0-7.72-6.28-14-14-14s-14,6.28-14,14S184.202,232,191.922,232z M283.922,218c0-7.72-6.28-14-14-14	s-14,6.28-14,14v14h14C277.642,232,283.922,225.72,283.922,218z"></path>
</svg>

