<svg xmlns="http://www.w3.org/2000/svg" viewBox="0 0 64 64">
<g data-name="Fill Outline">
<g data-name="Stroke copy">
<circle cx="49" cy="51" r="8" fill="#84d2f4"></circle>
<path fill="#57b7eb" d="M55.95,54.95a8,8,0,1,1-10.9-10.9A7.872,7.872,0,0,0,44,48a8,8,0,0,0,8,8A7.872,7.872,0,0,0,55.95,54.95Z"></path><rect width="14" height="10" x="9" y="17" fill="#e9f1f2"></rect><path fill="#d0d8da" d="M23,20v7H9V17h2a3,3,0,0,0,3,3Z"></path><rect width="6" height="6" x="13" y="21" fill="#84d2f4"></rect><rect width="14" height="4" x="9" y="13" fill="#84d2f4"></rect><rect width="14" height="4" x="9" y="9" fill="#84d2f4"></rect><polygon fill="#57b7eb" points="13 5 9 3 9 9 13 9 13 5"></polygon><rect width="4" height="6" x="23" y="21" fill="#d0d8da"></rect><path fill="#93999a" d="M27,24.82V27H23V21h2v1A2.968,2.968,0,0,0,27,24.82Z"></path><rect width="6" height="10" x="3" y="17" fill="#d0d8da"></rect><path fill="#93999a" d="M3,24.82V27H9V21H5v1A2.968,2.968,0,0,1,3,24.82Z"></path><rect width="6" height="4" x="3" y="17" fill="#57b7eb"></rect><rect width="4" height="4" x="23" y="13" fill="#84d2f4"></rect><rect width="4" height="4" x="23" y="17" fill="#84d2f4"></rect><rect width="7" height="4" x="13" y="5" fill="#84d2f4"></rect><rect width="4" height="4" x="5" y="13" fill="#57b7eb"></rect><polygon fill="#57b7eb" points="23 13 15 13 9 9 17 9 23 13"></polygon><polygon fill="#57b7eb" points="23 17 15 17 9 13 17 13 23 17"></polygon><polygon fill="#57b7eb" points="27 17 23 17 23 13 27 17"></polygon><polygon fill="#57b7eb" points="27 21 23 21 23 17 27 21"></polygon><polygon fill="#4891d3" points="5 17 9 17 9 13 5 17"></polygon><polygon fill="#4891d3" points="5 21 9 21 9 17 5 21"></polygon><polygon fill="#57b7eb" points="15 5 13 5 18 9 20 9 15 5"></polygon><polygon fill="#4891d3" points="11 6 9 3 9 9 13 9 13 6 11 6"></polygon><path fill="#57b7eb" d="M13,21v6h6V21Zm5,5H17a3,3,0,0,1-3-3V22h3a1,1,0,0,1,1,1Z"></path><circle cx="49" cy="50" r="3" fill="#f9e109"></circle><path fill="#f9e109" d="M53,56v1.92a7.947,7.947,0,0,1-8,0V56a3,3,0,0,1,3-3h2A3,3,0,0,1,53,56Z"></path><rect width="20" height="16" x="5" y="41" fill="#84d2f4" rx="2"></rect><path fill="#d0d8da" d="M21,61H9l.586-.586A4.828,4.828,0,0,0,11,57h8a4.828,4.828,0,0,0,1.414,3.414Z"></path><rect width="16" height="8" x="45" y="23" fill="#e9f1f2"></rect><path fill="#d0d8da" d="M61,29v2H45V23h3a2.015,2.015,0,0,0,2,2h5a2.006,2.006,0,0,1,2,2,2.015,2.015,0,0,0,2,2Z"></path><polygon fill="#f9e109" points="41 31 37 31 37 20 41 17 41 31"></polygon><polygon fill="#f9e109" points="45 31 41 31 41 20 45 17 45 31"></polygon><polygon fill="#84d2f4" points="53 23 49 23 50 13 53 13 53 23"></polygon><polygon fill="#84d2f4" points="61 23 57 23 58 13 61 13 61 23"></polygon><rect width="4" height="4" x="45" y="27" fill="#84d2f4"></rect><path fill="#57b7eb" d="M61,20.82V23H57l1-10h1v5A2.968,2.968,0,0,0,61,20.82Z"></path><path fill="#57b7eb" d="M53,20.82V23H49l1-10h1v5A2.968,2.968,0,0,0,53,20.82Z"></path><path fill="#57b7eb" d="M49,27v4H48V29a1,1,0,0,0-1-1H45V27Z"></path><path fill="#fcbc04" d="M45,29v2H41V20l2-1.5V27A2.006,2.006,0,0,0,45,29Z"></path><path fill="#fcbc04" d="M41,29v2H37V20l2-1.5V27A2.006,2.006,0,0,0,41,29Z"></path><path fill="#fcbc04" d="M53,55.94v1.98a7.947,7.947,0,0,1-8,0V56a2.993,2.993,0,0,1,1.25-2.44A7.978,7.978,0,0,0,52,56,8.262,8.262,0,0,0,53,55.94Z"></path><path fill="#fcbc04" d="M51.87,50.87a3,3,0,1,1-3.74-3.74A3.1,3.1,0,0,0,48,48a3,3,0,0,0,3,3A3.1,3.1,0,0,0,51.87,50.87Z"></path><path fill="#57b7eb" d="M25,53v2a2.006,2.006,0,0,1-2,2H7a2.006,2.006,0,0,1-2-2V43a2.006,2.006,0,0,1,2-2h3.05A12.986,12.986,0,0,0,23,53Z"></path><path fill="#93999a" d="M9,61l.586-.586A4.828,4.828,0,0,0,11,57h8Z"></path></g><g data-name="Outline copy"><path fill="#323232" d="M55.377,46.081a1,1,0,0,0-.353,1.37A6.963,6.963,0,0,1,53.99,55.9a3.984,3.984,0,0,0-1.955-3.325A3.962,3.962,0,0,0,53,50a4,4,0,0,0-8,0,3.962,3.962,0,0,0,.965,2.575A3.984,3.984,0,0,0,44.01,55.9a6.99,6.99,0,0,1,8.539-10.924,1,1,0,1,0,1.017-1.723,9.02,9.02,0,1,0,3.181,3.181A1,1,0,0,0,55.377,46.081ZM49,48a2,2,0,1,1-2,2A2,2,0,0,1,49,48Zm-3,9.315V56a2,2,0,0,1,2-2h2a2,2,0,0,1,2,2v1.315a6.912,6.912,0,0,1-6,0Z"></path><path fill="#323232" d="M61,12H58a1,1,0,0,0-.995.9L56.1,22H54V13a1,1,0,0,0-1-1H50a1,1,0,0,0-.995.9L48.1,22H46V17a1,1,0,0,0-1.6-.8L42,18V17a1,1,0,0,0-1.6-.8l-4,3a1,1,0,0,0-.4.8V31a1,1,0,0,0,2,0V20.5L40,19V31a1,1,0,0,0,1,1H61a1,1,0,0,0,1-1V27a1,1,0,0,0-1-1H59a1,1,0,0,0,0,2h1v2H50V27a1,1,0,0,0-1-1H46V24H61a1,1,0,0,0,1-1V13A1,1,0,0,0,61,12ZM42,20.5,44,19V30H42ZM48,28v2H46V28ZM60,14v3h-1.4l.3-3Zm-8,0v3h-1.4l.3-3Zm-1.9,8,.3-3H52v3Zm8,0,.3-3H60v3Z"></path><path fill="#323232" d="M53,26a1,1,0,0,0,0,2h2a1,1,0,0,0,0-2Z"></path><path fill="#323232" d="M54,4h.807A1.194,1.194,0,0,1,56,5.193v.226a3.189,3.189,0,0,0,2.184,3.029A1.193,1.193,0,0,1,59,9.581V10a1,1,0,0,0,2,0V9.581a3.189,3.189,0,0,0-2.184-3.029A1.193,1.193,0,0,1,58,5.419V5.193A3.2,3.2,0,0,0,54.807,2H54a1,1,0,0,0,0,2Z"></path><path fill="#323232" d="M44,4h.807A1.194,1.194,0,0,1,46,5.193v.226a3.189,3.189,0,0,0,2.184,3.029A1.193,1.193,0,0,1,49,9.581V10a1,1,0,0,0,2,0V9.581a3.189,3.189,0,0,0-2.184-3.029A1.193,1.193,0,0,1,48,5.419V5.193A3.2,3.2,0,0,0,44.807,2H44a1,1,0,0,0,0,2Z"></path><path fill="#323232" d="M56,11a1,1,0,0,0,0-2,2,2,0,0,1-2-2,1,1,0,0,0-2,0A4,4,0,0,0,56,11Z"></path><path fill="#323232" d="M46,11a1,1,0,0,0,0-2,2,2,0,0,1-2-2,1,1,0,0,0-2,0A4,4,0,0,0,46,11Z"></path><path fill="#323232" d="M6,27a1,1,0,0,0-1-1H4V22H8v5a1,1,0,0,0,1,1H19a1,1,0,0,0,1-1V21a1,1,0,0,0-1-1H13a1,1,0,0,0-1,1v5H10V18h9a1,1,0,0,0,0-2H10V10H22v2H13a1,1,0,0,0,0,2h9V27a1,1,0,0,0,1,1h4a1,1,0,0,0,1-1V13a1,1,0,0,0-1-1H24V9a1,1,0,0,0-1-1H21V5a1,1,0,0,0-1-1H13.236L9.447,2.105A1,1,0,0,0,8,3v9H5a1,1,0,0,0-1,1v3H3a1,1,0,0,0-1,1V27a1,1,0,0,0,1,1H5A1,1,0,0,0,6,27Zm8-5h4v4H14Zm12-2H24V18h2Zm-2,6V22h2v4Zm2-10H24V14h2ZM19,8H14V6h5ZM10,4.618l2,1V8H10ZM6,14H8v2H6ZM4,18H8v2H4Z"></path><path fill="#323232" d="M14,31v6a1,1,0,0,0,2,0V31a1,1,0,0,0-2,0Z"></path><path fill="#323232" d="M28.707,40.707l6-6a1,1,0,0,0-1.414-1.414l-6,6a1,1,0,1,0,1.414,1.414Z"></path><path fill="#323232" d="M37,50H29a1,1,0,0,0,0,2h8a1,1,0,0,0,0-2Z"></path><path fill="#323232" d="M50,39V35a1,1,0,0,0-2,0v4a1,1,0,0,0,2,0Z"></path><path fill="#323232" d="M23,40H7a3,3,0,0,0-3,3V55a3,3,0,0,0,3,3H9.848a3.838,3.838,0,0,1-.969,1.707L8.586,60H7a1,1,0,0,0,0,2H23a1,1,0,0,0,0-2H21.414l-.293-.293A3.838,3.838,0,0,1,20.152,58H23a3,3,0,0,0,3-3V50a1,1,0,0,0-2,0v5a1,1,0,0,1-1,1H7a1,1,0,0,1-1-1V43a1,1,0,0,1,1-1H23a1,1,0,0,1,1,1v3a1,1,0,0,0,2,0V43A3,3,0,0,0,23,40ZM18.088,58a5.915,5.915,0,0,0,.746,2H11.166a5.915,5.915,0,0,0,.746-2Z"></path><path fill="#323232" d="M17.121,50.879a1,1,0,0,0,.707-1.707,4.093,4.093,0,0,0-5.656,0,1,1,0,0,0,1.414,1.414,2.047,2.047,0,0,1,2.828,0A1,1,0,0,0,17.121,50.879Z"></path><path fill="#323232" d="M19.95,48.05a1,1,0,0,0,.707-1.707,8.01,8.01,0,0,0-11.314,0,1,1,0,0,0,1.414,1.414,6.01,6.01,0,0,1,8.486,0A1,1,0,0,0,19.95,48.05Z"></path><circle cx="15" cy="53" r="1" fill="#323232"></circle></g></g></svg>