<svg xmlns="http://www.w3.org/2000/svg" viewBox="0 0 64 64">
<g data-name="Stroke copy 2"><circle cx="49" cy="51" r="8" fill="#84d2f4"></circle>
<path fill="#57b7eb" d="M55.95,54.95a8,8,0,1,1-10.9-10.9A7.872,7.872,0,0,0,44,48a8,8,0,0,0,8,8A7.872,7.872,0,0,0,55.95,54.95Z"></path>
<rect width="14" height="10" x="9" y="17" fill="#e9f1f2"></rect>
<path fill="#d0d8da" d="M23,20v7H9V17h2a3,3,0,0,0,3,3Z"></path>
<rect width="6" height="6" x="13" y="21" fill="#84d2f4"></rect>
<rect width="14" height="4" x="9" y="13" fill="#84d2f4"></rect>
<rect width="14" height="4" x="9" y="9" fill="#84d2f4"></rect>
<polygon fill="#57b7eb" points="13 5 9 3 9 9 13 9 13 5"></polygon>
<rect width="4" height="6" x="23" y="21" fill="#d0d8da"></rect>
<path fill="#93999a" d="M27,24.82V27H23V21h2v1A2.968,2.968,0,0,0,27,24.82Z"></path>
<rect width="6" height="10" x="3" y="17" fill="#d0d8da"></rect>
<path fill="#93999a" d="M3,24.82V27H9V21H5v1A2.968,2.968,0,0,1,3,24.82Z"></path>
<rect width="6" height="4" x="3" y="17" fill="#57b7eb"></rect>
<rect width="4" height="4" x="23" y="13" fill="#84d2f4"></rect>
<rect width="4" height="4" x="23" y="17" fill="#84d2f4"></rect>
<rect width="7" height="4" x="13" y="5" fill="#84d2f4"></rect>
<rect width="4" height="4" x="5" y="13" fill="#57b7eb"></rect>
<polygon fill="#57b7eb" points="23 13 15 13 9 9 17 9 23 13"></polygon>
<polygon fill="#57b7eb" points="23 17 15 17 9 13 17 13 23 17"></polygon>
<polygon fill="#57b7eb" points="27 17 23 17 23 13 27 17"></polygon>
<polygon fill="#57b7eb" points="27 21 23 21 23 17 27 21"></polygon>
<polygon fill="#4891d3" points="5 17 9 17 9 13 5 17"></polygon>
<polygon fill="#4891d3" points="5 21 9 21 9 17 5 21"></polygon>
<polygon fill="#57b7eb" points="15 5 13 5 18 9 20 9 15 5"></polygon>
<polygon fill="#4891d3" points="11 6 9 3 9 9 13 9 13 6 11 6"></polygon>
<path fill="#57b7eb" d="M13,21v6h6V21Zm5,5H17a3,3,0,0,1-3-3V22h3a1,1,0,0,1,1,1Z"></path>
<circle cx="49" cy="50" r="3" fill="#f9e109"></circle>
<path fill="#f9e109" d="M53,56v1.92a7.947,7.947,0,0,1-8,0V56a3,3,0,0,1,3-3h2A3,3,0,0,1,53,56Z"></path>
<rect width="20" height="16" x="5" y="41" fill="#84d2f4" rx="2"></rect>
<path fill="#d0d8da" d="M21,61H9l.586-.586A4.828,4.828,0,0,0,11,57h8a4.828,4.828,0,0,0,1.414,3.414Z"></path>
<path fill="#fcbc04" d="M53,55.94v1.98a7.947,7.947,0,0,1-8,0V56a2.993,2.993,0,0,1,1.25-2.44A7.978,7.978,0,0,0,52,56,8.262,8.262,0,0,0,53,55.94Z"></path>
<path fill="#fcbc04" d="M51.87,50.87a3,3,0,1,1-3.74-3.74A3.1,3.1,0,0,0,48,48a3,3,0,0,0,3,3A3.1,3.1,0,0,0,51.87,50.87Z"></path>
<path fill="#57b7eb" d="M25,53v2a2.006,2.006,0,0,1-2,2H7a2.006,2.006,0,0,1-2-2V43a2.006,2.006,0,0,1,2-2h3.05A12.986,12.986,0,0,0,23,53Z"></path>
<path fill="#93999a" d="M9,61l.586-.586A4.828,4.828,0,0,0,11,57h8Z"></path>
<rect width="16" height="8" x="45" y="23" fill="#e9f1f2"></rect>
<path fill="#d0d8da" d="M61,29v2H45V23h3a2.015,2.015,0,0,0,2,2h5a2.006,2.006,0,0,1,2,2,2.015,2.015,0,0,0,2,2Z"></path>
<polygon fill="#f9e109" points="41 31 37 31 37 20 41 17 41 31"></polygon>
<polygon fill="#f9e109" points="45 31 41 31 41 20 45 17 45 31"></polygon>
<polygon fill="#84d2f4" points="53 23 49 23 50 13 53 13 53 23"></polygon>
<polygon fill="#84d2f4" points="61 23 57 23 58 13 61 13 61 23"></polygon>
<rect width="4" height="4" x="45" y="27" fill="#84d2f4"></rect>
<path fill="#57b7eb" d="M61,20.82V23H57l1-10h1v5A2.968,2.968,0,0,0,61,20.82Z"></path>
<path fill="#57b7eb" d="M53,20.82V23H49l1-10h1v5A2.968,2.968,0,0,0,53,20.82Z"></path>
<path fill="#57b7eb" d="M49,27v4H48V29a1,1,0,0,0-1-1H45V27Z"></path>
<path fill="#fcbc04" d="M45,29v2H41V20l2-1.5V27A2.006,2.006,0,0,0,45,29Z"></path>
<path fill="#fcbc04" d="M41,29v2H37V20l2-1.5V27A2.006,2.006,0,0,0,41,29Z"></path>
<polygon fill="#f8664f" points="49.4 19 53 19 53 17 49.6 17 49.4 19"></polygon>
<polygon fill="#f8664f" points="57.4 19 61 19 61 17 57.6 17 57.4 19"></polygon>
<rect width="2" height="2" x="59" y="26" fill="#57b7eb"></rect>
<rect width="2" height="2" x="53" y="26" fill="#4891d3"></rect>
<rect width="2" height="2" x="50" y="26" fill="#4891d3"></rect>
<rect width="2" height="2" x="55.951" y="26" fill="#57b7eb"></rect>
<path fill="#d0d8da" d="M60,12a1,1,0,0,1-1-1v-.419a1.192,1.192,0,0,0-.816-1.132A3.192,3.192,0,0,1,56,6.419V6.194A1.2,1.2,0,0,0,54.807,5H54a1,1,0,0,1,0-2h.807A3.2,3.2,0,0,1,58,6.194v.225a1.192,1.192,0,0,0,.816,1.132A3.192,3.192,0,0,1,61,10.581V11A1,1,0,0,1,60,12Z"></path>
<path fill="#d0d8da" d="M50,12a1,1,0,0,1-1-1v-.419a1.192,1.192,0,0,0-.816-1.132A3.192,3.192,0,0,1,46,6.419V6.194A1.2,1.2,0,0,0,44.807,5H44a1,1,0,0,1,0-2h.807A3.2,3.2,0,0,1,48,6.194v.225a1.192,1.192,0,0,0,.816,1.132A3.192,3.192,0,0,1,51,10.581V11A1,1,0,0,1,50,12Z"></path>
<path fill="#d0d8da" d="M56,12a4,4,0,0,1-4-4,1,1,0,0,1,2,0,2,2,0,0,0,2,2,1,1,0,0,1,0,2Z"></path>
<path fill="#d0d8da" d="M46,12a4,4,0,0,1-4-4,1,1,0,0,1,2,0,2,2,0,0,0,2,2,1,1,0,0,1,0,2Z"></path>
<path fill="#cc5144" d="M51.17,19H49.4l.2-2H51v1A3,3,0,0,0,51.17,19Z"></path>
<path fill="#cc5144" d="M59.17,19H57.4l.2-2H59v1A3,3,0,0,0,59.17,19Z"></path>
<path fill="#4891d3" d="M57.27,28H55.95V26h.78A2,2,0,0,1,57,27,2,2,0,0,0,57.27,28Z"></path>
<path fill="#f9e109" d="M15,38a1,1,0,0,1-1-1V31a1,1,0,0,1,2,0v6A1,1,0,0,1,15,38Z"></path>
<path fill="#f9e109" d="M28,41a1,1,0,0,1-.707-1.707l6-6a1,1,0,0,1,1.414,1.414l-6,6A1,1,0,0,1,28,41Z"></path>
<path fill="#f9e109" d="M37,52H29a1,1,0,0,1,0-2h8a1,1,0,0,1,0,2Z"></path>
<path fill="#f9e109" d="M49,40a1,1,0,0,1-1-1V35a1,1,0,0,1,2,0v4A1,1,0,0,1,49,40Z"></path>
<path fill="#f9e109" d="M17.121,50.879a1,1,0,0,1-.707-.293,2.047,2.047,0,0,0-2.828,0,1,1,0,0,1-1.414-1.414,4.093,4.093,0,0,1,5.656,0,1,1,0,0,1-.707,1.707Z"></path>
<path fill="#f9e109" d="M19.95,48.05a1,1,0,0,1-.707-.293,6.01,6.01,0,0,0-8.486,0,1,1,0,0,1-1.414-1.414,8.01,8.01,0,0,1,11.314,0,1,1,0,0,1-.707,1.707Z"></path>
<circle cx="15" cy="53" r="1" fill="#fcbc04"></circle>
<path fill="#e9f1f2" d="M23,61H7a1,1,0,0,1,0-2H23a1,1,0,0,1,0,2Z"></path>
<path fill="#fcbc04" d="M14.75,50.05a1.849,1.849,0,0,0-1.16.54,1,1,0,1,1-1.42-1.42,3.738,3.738,0,0,1,.98-.7A13.275,13.275,0,0,0,14.75,50.05Z"></path>
<path fill="#fcbc04" d="M11.95,46.84a5.833,5.833,0,0,0-1.19.92,1,1,0,0,1-1.42-1.42,7.684,7.684,0,0,1,1.69-1.28A12.469,12.469,0,0,0,11.95,46.84Z"></path>
</g>
</svg>