<?xml version="1.0" standalone="no"?>
<!DOCTYPE svg PUBLIC "-//W3C//DTD SVG 20010904//EN"
 "http://www.w3.org/TR/2001/REC-SVG-20010904/DTD/svg10.dtd">
<svg version="1.0" xmlns="http://www.w3.org/2000/svg"
 width="176.000000pt" height="236.000000pt" viewBox="0 0 176.000000 236.000000"
 preserveAspectRatio="xMidYMid meet">

<g transform="translate(0.000000,236.000000) scale(0.100000,-0.100000)"
fill="#000000" stroke="none">
<path d="M261 2334 c-17 -14 -35 -42 -41 -62 -6 -22 -10 -174 -10 -371 l0
-335 -105 -106 -105 -107 0 -111 c0 -129 7 -142 76 -142 l44 0 0 -109 0 -108
-60 -66 -60 -65 0 -321 c0 -349 3 -368 55 -409 l28 -22 797 0 797 0 28 22 c57
45 55 -4 55 1158 0 1162 2 1113 -55 1158 l-28 22 -693 0 -692 0 -31 -26z m789
-354 l0 -280 -70 0 -70 0 0 280 0 280 70 0 70 0 0 -280z m370 0 l0 -280 -72 0
-73 0 2 277 c2 153 3 279 3 281 0 1 32 2 70 2 l70 0 0 -280z m-920 -30 l0
-250 -70 0 -70 0 0 250 0 250 70 0 70 0 0 -250z m190 0 l0 -250 -75 0 -75 0 0
250 0 250 75 0 75 0 0 -250z m180 0 l0 -250 -75 0 -75 0 0 250 0 250 75 0 75
0 0 -250z m370 0 l0 -250 -75 0 -75 0 0 250 0 250 75 0 75 0 0 -250z m370 0
l0 -250 -75 0 -75 0 0 250 0 250 75 0 75 0 0 -250z"/>
</g>
</svg>
