<?xml version="1.0" encoding="UTF-8" standalone="no"?>
<svg xmlns:rdf="http://www.w3.org/1999/02/22-rdf-syntax-ns#" xmlns="http://www.w3.org/2000/svg" xmlns:osb="http://www.openswatchbook.org/uri/2009/osb" xml:space="preserve" overflow="visible" height="457.818" width="303.33" version="1.1" enable-background="new 0 0 303.33 457.818" xmlns:cc="http://creativecommons.org/ns#" viewBox="0 0 303.33 457.818" xmlns:dc="http://purl.org/dc/elements/1.1/"><g transform="translate(36.1531,-274.547)"><path stroke-linejoin="round" d="m0.43 295.11-0.43 0.85v38.55h4.25v34.02h-4.25v88.3l0.28 0.85 1.14 0.14h118.15l0.76-0.57 0.14-0.57v-101.85l-2.83 0.09v-9.07l2.83 0.04v-29.8l-21.26-21.26h-97.93l-0.85 0.28z" stroke="#000" stroke-linecap="round" stroke-miterlimit="3" stroke-width="0.72" fill="#3c05cd"/></g><g stroke-linejoin="round" stroke="#000" stroke-linecap="round" stroke-miterlimit="3" stroke-width="0.72"><rect fill-opacity=".858824" height="16.157" width="4.252" y="60.814" x="36.1531" fill="#ff8300"/><path d="m59.3016 174.767h73.468c0.651 0 1.179 0.528 1.179 1.18 0 0.651-0.527 1.179-1.179 1.179h-73.468c-0.651 0-1.18-0.528-1.18-1.179 0-0.652 0.529-1.18 1.18-1.18z" fill="#000080"/><path d="m58.83 37.287h75.119c7.827 0 14.173 6.346 14.173 14.173v104.881c0 7.828-6.346 14.173-14.173 14.173h-75.119c-7.827 0.001-14.173-6.344-14.173-14.172v-104.882c0-7.827 6.346-14.173 14.173-14.173z" fill="#000080"/><path d="m148.11 50.905c-0.62-3.63-0.7-5.6-1.561-7.53-1.32-3-4.49-5.92-10.05-5.86l-78.38-0.21c-4.82 1.11-8.021 2.16-10.311 4.2-2.1 1.87-3.439 4.57-3.149 9.8v14.33h103.461l-0.01-14.73z" fill="#f00"/><path d="m148.117 65.631v22.68c-4.52 3.96-16.22 8.57-25.71 8.53-8.6-0.04-15.38-3.88-19.88-8-9.021-8.27-8.83-17.67-37.4-17.48-0.67 0.01-1.359 0.02-2.12 0.11-6.56 0.77-18.35 7.49-18.35 4.08v-9.92h103.46z" fill="#0cf"/></g><g transform="translate(38.7672,-387.775)"><desc>Secure Digital</desc><g enable-background="new    " fill="#fff"><path d="m9.89 448.38 0.715-0.063c0.034 0.286 0.113 0.521 0.236 0.705s0.316 0.332 0.576 0.445 0.553 0.17 0.879 0.17c0.289 0 0.544-0.043 0.766-0.129s0.386-0.204 0.494-0.354 0.162-0.313 0.162-0.49c0-0.18-0.052-0.337-0.156-0.471s-0.276-0.247-0.516-0.338c-0.154-0.06-0.494-0.153-1.02-0.279s-0.895-0.245-1.105-0.357c-0.273-0.144-0.477-0.321-0.611-0.533s-0.201-0.45-0.201-0.713c0-0.289 0.082-0.56 0.246-0.811s0.404-0.442 0.719-0.572 0.666-0.195 1.051-0.195c0.424 0 0.799 0.068 1.123 0.205s0.574 0.338 0.748 0.604 0.268 0.566 0.281 0.902l-0.727 0.055c-0.039-0.362-0.171-0.636-0.396-0.82s-0.558-0.277-0.998-0.277c-0.458 0-0.792 0.084-1.002 0.252s-0.314 0.37-0.314 0.607c0 0.206 0.074 0.375 0.223 0.508 0.146 0.133 0.527 0.269 1.143 0.408s1.039 0.261 1.268 0.365c0.333 0.153 0.58 0.349 0.738 0.584s0.238 0.507 0.238 0.814c0 0.305-0.087 0.592-0.262 0.861s-0.425 0.479-0.752 0.629-0.695 0.225-1.104 0.225c-0.518 0-0.953-0.075-1.303-0.227s-0.625-0.378-0.824-0.682-0.305-0.645-0.315-1.028z"/><path d="m18.233 448.884 0.727 0.09c-0.115 0.425-0.327 0.754-0.637 0.988s-0.706 0.352-1.188 0.352c-0.607 0-1.088-0.187-1.443-0.561s-0.533-0.897-0.533-1.572c0-0.698 0.18-1.239 0.539-1.625s0.826-0.578 1.398-0.578c0.555 0 1.008 0.188 1.359 0.566s0.527 0.909 0.527 1.594c0 0.042-0.001 0.104-0.004 0.188h-3.094c0.026 0.456 0.155 0.805 0.387 1.047s0.521 0.363 0.867 0.363c0.258 0 0.478-0.067 0.66-0.203s0.329-0.352 0.435-0.649zm-2.308-1.137h2.316c-0.031-0.349-0.12-0.61-0.266-0.785-0.224-0.271-0.514-0.406-0.871-0.406-0.323 0-0.594 0.108-0.814 0.324s-0.342 0.505-0.365 0.867z"/><path d="m22.55 448.701 0.691 0.09c-0.076 0.477-0.269 0.85-0.58 1.119s-0.693 0.404-1.146 0.404c-0.568 0-1.024-0.186-1.369-0.557s-0.518-0.903-0.518-1.596c0-0.448 0.074-0.84 0.223-1.176s0.375-0.588 0.678-0.756 0.633-0.252 0.99-0.252c0.451 0 0.819 0.114 1.105 0.342s0.47 0.552 0.551 0.971l-0.684 0.105c-0.065-0.278-0.18-0.488-0.346-0.629s-0.365-0.211-0.6-0.211c-0.354 0-0.642 0.127-0.863 0.381s-0.332 0.655-0.332 1.205c0 0.558 0.107 0.962 0.32 1.215s0.492 0.379 0.836 0.379c0.276 0 0.506-0.085 0.691-0.254s0.304-0.429 0.353-0.78z"/><path d="m26.562 450.22v-0.609c-0.323 0.469-0.762 0.703-1.316 0.703-0.245 0-0.473-0.047-0.686-0.141s-0.37-0.212-0.473-0.354-0.175-0.315-0.217-0.521c-0.029-0.138-0.043-0.356-0.043-0.656v-2.57h0.703v2.301c0 0.367 0.014 0.614 0.043 0.742 0.044 0.185 0.138 0.33 0.281 0.436s0.32 0.158 0.531 0.158 0.409-0.054 0.594-0.162 0.316-0.255 0.393-0.441 0.115-0.456 0.115-0.811v-2.223h0.703v4.148h-0.628z"/><path d="m28.284 450.22v-4.148h0.633v0.629c0.162-0.294 0.311-0.488 0.447-0.582s0.287-0.141 0.451-0.141c0.237 0 0.478 0.075 0.723 0.227l-0.242 0.652c-0.172-0.102-0.344-0.152-0.516-0.152-0.154 0-0.292 0.046-0.414 0.139s-0.209 0.221-0.262 0.385c-0.078 0.25-0.117 0.523-0.117 0.82v2.172h-0.703z"/><path d="m33.796 448.884 0.727 0.09c-0.115 0.425-0.327 0.754-0.637 0.988s-0.706 0.352-1.188 0.352c-0.607 0-1.088-0.187-1.443-0.561s-0.533-0.897-0.533-1.572c0-0.698 0.18-1.239 0.539-1.625s0.826-0.578 1.398-0.578c0.555 0 1.008 0.188 1.359 0.566s0.527 0.909 0.527 1.594c0 0.042-0.001 0.104-0.004 0.188h-3.094c0.026 0.456 0.155 0.805 0.387 1.047s0.521 0.363 0.867 0.363c0.258 0 0.478-0.067 0.66-0.203s0.328-0.352 0.435-0.649zm-2.309-1.137h2.316c-0.031-0.349-0.12-0.61-0.266-0.785-0.224-0.271-0.514-0.406-0.871-0.406-0.323 0-0.594 0.108-0.814 0.324s-0.341 0.505-0.365 0.867z"/><path d="m37.718 450.22v-5.727h1.973c0.445 0 0.785 0.027 1.02 0.082 0.328 0.075 0.608 0.212 0.84 0.41 0.302 0.255 0.528 0.581 0.678 0.979s0.225 0.851 0.225 1.361c0 0.435-0.051 0.82-0.152 1.156s-0.232 0.614-0.391 0.834-0.333 0.394-0.521 0.52-0.417 0.222-0.684 0.287-0.574 0.098-0.92 0.098h-2.068zm0.758-0.676h1.223c0.377 0 0.674-0.035 0.889-0.105s0.386-0.169 0.514-0.297c0.18-0.18 0.32-0.421 0.42-0.725s0.15-0.671 0.15-1.104c0-0.599-0.098-1.06-0.295-1.381s-0.436-0.537-0.717-0.646c-0.203-0.078-0.53-0.117-0.98-0.117h-1.203v4.375z"/><path d="m43.409 445.302v-0.809h0.703v0.809h-0.703zm0 4.918v-4.148h0.703v4.148h-0.703z"/><path d="m45.054 450.564 0.684 0.102c0.029 0.211 0.108 0.364 0.238 0.461 0.174 0.13 0.413 0.195 0.715 0.195 0.326 0 0.577-0.065 0.754-0.195s0.297-0.313 0.359-0.547c0.037-0.144 0.053-0.444 0.051-0.902-0.307 0.362-0.69 0.543-1.148 0.543-0.57 0-1.012-0.206-1.324-0.617s-0.469-0.905-0.469-1.48c0-0.396 0.072-0.761 0.215-1.096s0.351-0.593 0.623-0.775 0.592-0.273 0.959-0.273c0.49 0 0.893 0.198 1.211 0.594v-0.5h0.648v3.586c0 0.646-0.066 1.104-0.197 1.373s-0.34 0.482-0.625 0.639-0.636 0.234-1.053 0.234c-0.495 0-0.895-0.111-1.199-0.334s-0.452-0.56-0.442-1.008zm0.582-2.492c0 0.544 0.108 0.941 0.324 1.191s0.487 0.375 0.813 0.375c0.323 0 0.594-0.124 0.813-0.373s0.328-0.639 0.328-1.17c0-0.508-0.113-0.891-0.338-1.148s-0.497-0.387-0.814-0.387c-0.313 0-0.578 0.127-0.797 0.381s-0.329 0.631-0.329 1.131z"/><path d="m49.636 445.302v-0.809h0.703v0.809h-0.703zm0 4.918v-4.148h0.703v4.148h-0.703z"/><path d="m52.944 449.591 0.102 0.621c-0.198 0.042-0.375 0.063-0.531 0.063-0.255 0-0.453-0.04-0.594-0.121s-0.24-0.187-0.297-0.318-0.086-0.408-0.086-0.83v-2.387h-0.516v-0.547h0.516v-1.027l0.699-0.422v1.449h0.707v0.547h-0.707v2.426c0 0.2 0.012 0.329 0.037 0.387s0.065 0.103 0.121 0.137 0.136 0.051 0.24 0.051c0.078-0.001 0.181-0.01 0.309-0.029z"/><path d="m56.338 449.708c-0.26 0.222-0.511 0.378-0.752 0.469s-0.5 0.137-0.775 0.137c-0.456 0-0.806-0.111-1.051-0.334s-0.367-0.507-0.367-0.854c0-0.203 0.046-0.389 0.139-0.557s0.213-0.303 0.363-0.404 0.318-0.179 0.506-0.23c0.138-0.036 0.346-0.071 0.625-0.105 0.568-0.067 0.986-0.148 1.254-0.242 0.002-0.097 0.004-0.157 0.004-0.184 0-0.286-0.066-0.488-0.199-0.605-0.18-0.159-0.447-0.238-0.801-0.238-0.331 0-0.575 0.058-0.732 0.174s-0.274 0.321-0.35 0.615l-0.688-0.094c0.063-0.294 0.166-0.532 0.309-0.713s0.35-0.32 0.621-0.418 0.584-0.146 0.941-0.146c0.354 0 0.642 0.042 0.863 0.125s0.384 0.188 0.488 0.314 0.177 0.286 0.219 0.479c0.023 0.12 0.035 0.336 0.035 0.648v0.938c0 0.653 0.015 1.067 0.045 1.24s0.089 0.339 0.178 0.498h-0.734c-0.073-0.146-0.12-0.317-0.141-0.513zm-0.058-1.57c-0.255 0.104-0.638 0.192-1.148 0.266-0.289 0.042-0.494 0.089-0.613 0.141s-0.212 0.128-0.277 0.229-0.098 0.212-0.098 0.334c0 0.188 0.071 0.344 0.213 0.469s0.35 0.188 0.623 0.188c0.271 0 0.512-0.06 0.723-0.178s0.366-0.28 0.465-0.486c0.076-0.159 0.113-0.394 0.113-0.703v-0.26z"/><path d="m58.065 450.22v-5.727h0.703v5.727h-0.703z"/></g></g><g fill="#fff"><path d="m107.541 55.596c-1.17-1.17-1.21-2.02-1.16-2.62 0.04-0.51 0.15-0.85 0.53-1.16 1.01-0.84 3.93-1.47 7.62-1.66h7.57l-0.971 2.33h-9.509c-0.78 0.19-1.09 0.28-1 0.53 0.11 0.3 0.79 0.82 1.19 0.83l2.33 0.77c1.75 0.59 2.68 0.74 3.649 1.48 0.811 0.62 1.641 1.65 1.59 2.66-0.1 1.73-2.85 3.39-4.85 3.44h-12.429l1.359-4.08 6.99 0.58c0.32 0.23 2.33 0.01 2.63-0.34 0.38-0.44-1.979-1.09-2.63-1.41l-2.909-1.35z"/><path d="m130.848 50.544-3.69 2.33c-1.56-0.39-1.75-0.39-3.5-0.58l0.97-2.34c2.72 0 3.69 0.2 6.22 0.59z"/><path d="m134.918 51.614c-0.93-0.47-1.92-0.61-3.01-0.78l-3.88 2.33 0.87 0.39 6.02-1.94z"/><path d="m119.968 62.393c4.7 0.28 11.091-0.66 13.9-1.62 0.87-0.3 1.4-0.6 2.8-1.56 0.99-0.68 2.42-1.68 2.96-2.74 0.5-0.97 0.25-1.98-0.29-2.63-0.55-0.67-1.409-0.97-3.25-1.75l-6.6 2.04c0 2.24-3.5 3.21-7.58 3.21l-1.94 5.05z"/></g><g transform="translate(133.751,-389.55)"><desc>TM</desc><g enable-background="new    " fill="#fff"><path d="m5.209 452.17v-2.523h-0.945v-0.34h2.27v0.34h-0.946v2.523h-0.379z"/><path d="m6.906 452.17v-2.863h0.57l0.681 2.027c0.063 0.188 0.108 0.33 0.137 0.424 0.033-0.104 0.084-0.257 0.153-0.459l0.69-1.992h0.51v2.863h-0.366v-2.395l-0.836 2.395h-0.341l-0.83-2.438v2.438h-0.368z"/></g></g><g transform="translate(37.1294,-358.09)"><desc>▼LOCK</desc><g enable-background="new    " fill="#fff"><path d="m18.654 444.798-2.773 5.543-2.773-5.543h5.546z"/><path d="m20.424 450.22v-5.727h0.758v5.051h2.82v0.676h-3.578z"/><path d="m24.674 447.431c0-0.95 0.255-1.694 0.766-2.232s1.169-0.807 1.977-0.807c0.529 0 1.005 0.126 1.43 0.379s0.748 0.604 0.971 1.057 0.334 0.964 0.334 1.537c0 0.581-0.117 1.101-0.352 1.559s-0.566 0.806-0.996 1.041-0.893 0.354-1.391 0.354c-0.539 0-1.021-0.13-1.445-0.391s-0.746-0.616-0.965-1.066-0.329-0.929-0.329-1.431zm0.781 0.011c0 0.69 0.186 1.233 0.557 1.631s0.836 0.596 1.396 0.596c0.57 0 1.04-0.2 1.408-0.602s0.553-0.97 0.553-1.707c0-0.466-0.079-0.873-0.236-1.221s-0.388-0.617-0.691-0.809-0.644-0.287-1.021-0.287c-0.537 0-0.998 0.185-1.385 0.553s-0.581 0.984-0.581 1.846z"/><path d="m35.213 448.212 0.758 0.191c-0.159 0.622-0.445 1.097-0.857 1.424s-0.917 0.49-1.514 0.49c-0.617 0-1.119-0.126-1.506-0.377s-0.681-0.615-0.883-1.092-0.303-0.988-0.303-1.535c0-0.597 0.114-1.116 0.342-1.561s0.552-0.781 0.973-1.012 0.883-0.346 1.389-0.346c0.573 0 1.055 0.146 1.445 0.438s0.663 0.702 0.816 1.23l-0.746 0.176c-0.133-0.417-0.326-0.72-0.578-0.91s-0.57-0.285-0.953-0.285c-0.44 0-0.808 0.105-1.104 0.316s-0.503 0.494-0.623 0.85-0.18 0.722-0.18 1.1c0 0.487 0.071 0.912 0.213 1.275s0.363 0.635 0.662 0.814 0.624 0.27 0.973 0.27c0.424 0 0.784-0.122 1.078-0.367s0.494-0.608 0.598-1.089z"/><path d="m36.873 450.22v-5.727h0.758v2.84l2.844-2.84h1.027l-2.402 2.32 2.508 3.406h-1l-2.039-2.898-0.938 0.914v1.984h-0.758z"/></g></g><g transform="translate(24.8145,-300.728)"><desc>2</desc><path fill="#fff" d="m32.75 456.91v-3.563c1.174-2.744 3.55-5.733 7.127-8.97l2.314-2.068c2.977-2.689 4.465-5.358 4.465-8.008 0-1.695-0.509-3.027-1.527-3.998s-2.421-1.456-4.211-1.456c-2.091 0-4.563 0.813-7.418 2.438v-3.563c2.696-1.271 5.378-1.906 8.047-1.906 2.846 0 5.128 0.766 6.846 2.296 1.717 1.53 2.576 3.56 2.576 6.088 0 1.815-0.435 3.426-1.304 4.832s-2.487 3.113-4.855 5.12l-1.56 1.331c-3.244 2.744-5.119 5.366-5.625 7.864h13.188v3.563h-18.063z"/></g><g transform="translate(68.3106,-295.728)"><desc>GB</desc><g enable-background="new    " fill="#fff"><path d="m21.04 448.195v-1.688h6.063v5.312c-0.932 0.742-1.893 1.3-2.883 1.674s-2.006 0.562-3.048 0.562c-1.407 0-2.686-0.302-3.835-0.903-1.15-0.604-2.018-1.475-2.604-2.614s-0.879-2.413-0.879-3.82c0-1.394 0.292-2.694 0.875-3.903 0.583-1.208 1.421-2.105 2.516-2.691 1.094-0.587 2.354-0.88 3.781-0.88 1.036 0 1.972 0.168 2.81 0.504 0.837 0.336 1.493 0.804 1.969 1.403s0.837 1.383 1.084 2.348l-1.712 0.469c-0.215-0.729-0.482-1.303-0.801-1.721-0.319-0.416-0.775-0.75-1.368-1.002-0.593-0.25-1.25-0.376-1.974-0.376-0.866 0-1.615 0.132-2.247 0.396s-1.142 0.611-1.529 1.042c-0.388 0.431-0.689 0.904-0.904 1.42-0.364 0.887-0.547 1.85-0.547 2.887 0 1.279 0.22 2.349 0.659 3.21s1.08 1.501 1.92 1.919c0.84 0.417 1.732 0.626 2.677 0.626 0.821 0 1.622-0.159 2.403-0.476 0.782-0.318 1.375-0.656 1.778-1.017v-2.68h-4.204z"/><path d="m29.816 453.82v-14.328h5.375c1.095 0 1.973 0.146 2.634 0.436 0.661 0.291 1.18 0.738 1.554 1.342 0.375 0.604 0.562 1.236 0.562 1.896 0 0.613-0.166 1.191-0.497 1.733s-0.831 0.979-1.5 1.313c0.862 0.254 1.525 0.687 1.989 1.298 0.463 0.611 0.695 1.333 0.695 2.165 0 0.67-0.142 1.293-0.425 1.868-0.283 0.576-0.634 1.02-1.05 1.332s-0.939 0.548-1.568 0.707c-0.628 0.16-1.398 0.239-2.31 0.239h-5.459zm1.89-8.297h3.104c0.842 0 1.446-0.056 1.812-0.167 0.483-0.144 0.847-0.382 1.092-0.715 0.245-0.334 0.367-0.752 0.367-1.256 0-0.477-0.114-0.896-0.343-1.26s-0.555-0.611-0.979-0.745-1.152-0.201-2.184-0.201h-2.869v4.344zm0 6.609h3.572c0.613 0 1.044-0.022 1.292-0.068 0.438-0.078 0.803-0.208 1.097-0.391 0.293-0.183 0.535-0.447 0.724-0.796 0.189-0.348 0.284-0.75 0.284-1.206 0-0.534-0.137-0.997-0.41-1.392-0.273-0.394-0.653-0.67-1.139-0.83-0.486-0.159-1.187-0.239-2.101-0.239h-3.319v4.922z"/></g></g><g transform="matrix(-1,0,0,1,298.358,-274.547)"><path fill="#3c05cd" d="m0.43 295.111-0.43 0.849v38.55h4.25v34.02h-4.25v88.3l0.28 0.85 1.14 0.14h118.15l0.76-0.57 0.14-0.57v-101.85l-2.829 0.09v-9.07l2.829 0.04v-29.8l-21.26-21.26h-97.93l-0.85 0.281z"/></g><rect fill-opacity=".215686" height="17.2917" width="11.4102" y="21.2911" x="185.503" fill="#fff"/><rect fill-opacity=".215686" height="5.17574" width="96.457" y="19.2914" x="199.031" fill="#fff"/><g transform="translate(199.145,-407.775)"><linearGradient id="v" y2="1048.57" gradientUnits="userSpaceOnUse" y1="1049.57" gradientTransform="matrix(93.5433 0 0 -25.5118 32217.3 27208.6)" x2="-343.911" x1="-343.911"><stop stop-color="#cc0" offset="0"/><stop stop-color="#E6E600" offset="1"/></linearGradient><rect height="25.512" width="93.543" y="432.306" x="0" fill="url(#v)"/></g><g transform="translate(222.956,-407.775)"><linearGradient id="u" y2="1049.04" gradientUnits="userSpaceOnUse" y1="1050.04" gradientTransform="matrix(24.9449 0 0 -27.2126 9077.6 29004.8)" x2="-363.406" x1="-363.406"><stop stop-color="#cc0" offset="0"/><stop stop-color="#E6E600" offset="1"/></linearGradient><rect height="27.213" width="24.945" y="430.605" x="0" fill="url(#u)"/></g><g stroke-miterlimit="3" fill="#3c05cd"><path d="m183.271 59.966h2.24185l-0.0404-25.8-2.09134 2.51-0.11011 23.29z"/><path d="m196.782 59.683h2.35948v-39.69l-2.35948 2.98v36.71z"/><rect height="30.047" width="2.834" y="20.279" x="209.066"/><rect height="30.047" width="2.834" y="20.279" x="221.822"/><rect height="30.047" width="2.834" y="20.279" x="233.728"/><rect height="30.047" width="2.834" y="20.279" x="246.767"/><rect height="30.047" width="2.834" y="20.279" x="260.09"/><rect height="30.047" width="2.834" y="20.279" x="272.563"/></g><rect height="25.512" width="1.134" stroke-miterlimit="3" y="24.531" x="284.751" fill="#155314"/><rect height="30.047" width="2.834" stroke-miterlimit="3" y="20.279" x="292.689" fill="#3c05cd"/><g transform="translate(185.539,-398.137)"><linearGradient id="t" y2="1038.2" gradientUnits="userSpaceOnUse" y1="1039.2" gradientTransform="matrix(11.34 0 0 -23.25 3622.32 24595.9)" x2="-318.928" x1="-318.928"><stop stop-color="#cc0" offset="0"/><stop stop-color="#E6E600" offset="1"/></linearGradient><path fill="url(#t)" d="m0 457.82h11.34v-23.25h-9.07l-2.27 1.94v21.31z"/></g><rect height="1.701" width="93.543" y="50.043" x="199.145" fill="#3c05cd"/><rect height="1.701" width="16.157" y="59.68" x="182.988" fill="#3c05cd"/><g transform="translate(204.374,-283.051)"><desc>NT07Y8M27D MADE IN JAPAN</desc><g enable-background="new    " fill="#fff"><path d="m10.59 445.42v-5.727h0.777l3.008 4.496v-4.496h0.727v5.727h-0.777l-3.008-4.5v4.5h-0.727z"/><path d="m17.832 445.42v-5.051h-1.887v-0.676h4.539v0.676h-1.894v5.051h-0.758z"/><path d="m20.976 442.596c0-0.677 0.07-1.222 0.209-1.635s0.346-0.731 0.621-0.955 0.621-0.336 1.037-0.336c0.307 0 0.576 0.062 0.809 0.186s0.424 0.302 0.574 0.535 0.27 0.517 0.355 0.852 0.129 0.786 0.129 1.354c0 0.672-0.068 1.214-0.207 1.627s-0.344 0.731-0.619 0.957-0.621 0.338-1.041 0.338c-0.553 0-0.986-0.198-1.301-0.594-0.376-0.477-0.566-1.254-0.566-2.329zm0.723 0c0 0.94 0.109 1.565 0.33 1.877s0.492 0.467 0.814 0.467 0.594-0.156 0.814-0.469 0.33-0.938 0.33-1.875c0-0.942-0.109-1.569-0.33-1.879s-0.494-0.465-0.822-0.465c-0.322 0-0.58 0.137-0.773 0.41-0.242 0.349-0.363 0.994-0.363 1.934z"/><path d="m25.472 440.444v-0.676h3.707v0.547c-0.365 0.388-0.727 0.903-1.084 1.547s-0.635 1.305-0.83 1.984c-0.141 0.479-0.23 1.004-0.27 1.574h-0.723c0.008-0.45 0.096-0.995 0.266-1.633s0.412-1.253 0.729-1.846 0.652-1.092 1.01-1.498h-2.805z"/><path d="m31.773 445.42v-2.426l-2.207-3.301h0.922l1.129 1.727c0.209 0.323 0.402 0.646 0.582 0.969 0.172-0.3 0.381-0.637 0.625-1.012l1.109-1.684h0.883l-2.285 3.301v2.426h-0.758z"/><path d="m36.293 442.315c-0.291-0.106-0.508-0.259-0.648-0.457s-0.211-0.435-0.211-0.711c0-0.417 0.15-0.767 0.449-1.051s0.697-0.426 1.195-0.426c0.5 0 0.902 0.146 1.207 0.436s0.457 0.644 0.457 1.061c0 0.266-0.07 0.497-0.209 0.693s-0.352 0.349-0.635 0.455c0.352 0.114 0.619 0.3 0.803 0.555s0.275 0.56 0.275 0.914c0 0.489-0.174 0.901-0.52 1.234s-0.803 0.5-1.367 0.5-1.021-0.167-1.367-0.502-0.52-0.752-0.52-1.252c0-0.372 0.094-0.685 0.283-0.936s0.458-0.422 0.808-0.513zm-0.367 1.453c0 0.2 0.047 0.395 0.143 0.582s0.236 0.333 0.424 0.436 0.389 0.154 0.605 0.154c0.336 0 0.613-0.108 0.832-0.324s0.328-0.491 0.328-0.824c0-0.339-0.113-0.618-0.338-0.84s-0.508-0.332-0.846-0.332c-0.33 0-0.605 0.109-0.822 0.328s-0.326 0.492-0.326 0.82zm0.226-2.645c0 0.271 0.088 0.492 0.262 0.664s0.4 0.258 0.68 0.258c0.271 0 0.492-0.085 0.666-0.256s0.26-0.38 0.26-0.627c0-0.258-0.09-0.475-0.268-0.65s-0.4-0.264-0.666-0.264c-0.268 0-0.49 0.086-0.668 0.258s-0.266 0.378-0.266 0.617z"/><path d="m39.922 445.42v-5.727h1.141l1.355 4.055c0.125 0.378 0.217 0.66 0.273 0.848 0.064-0.208 0.166-0.515 0.305-0.918l1.371-3.984h1.02v5.727h-0.73v-4.793l-1.664 4.793h-0.684l-1.656-4.875v4.875h-0.731z"/><path d="m50.019 444.744v0.676h-3.785c-0.006-0.169 0.021-0.332 0.082-0.488 0.096-0.258 0.25-0.512 0.463-0.762s0.52-0.539 0.92-0.867c0.623-0.511 1.043-0.915 1.262-1.213s0.328-0.58 0.328-0.846c0-0.278-0.1-0.514-0.299-0.705s-0.459-0.287-0.779-0.287c-0.338 0-0.609 0.102-0.813 0.305s-0.307 0.484-0.309 0.844l-0.723-0.074c0.049-0.539 0.236-0.95 0.559-1.232s0.756-0.424 1.301-0.424c0.549 0 0.984 0.152 1.305 0.457s0.48 0.683 0.48 1.133c0 0.229-0.047 0.454-0.141 0.676s-0.25 0.454-0.467 0.699-0.578 0.581-1.084 1.008c-0.422 0.354-0.693 0.595-0.813 0.721s-0.219 0.253-0.297 0.381h2.81z"/><path d="m50.82 440.444v-0.676h3.707v0.547c-0.365 0.388-0.727 0.903-1.084 1.547s-0.635 1.305-0.83 1.984c-0.141 0.479-0.23 1.004-0.27 1.574h-0.723c0.008-0.45 0.096-0.995 0.266-1.633s0.412-1.253 0.729-1.846 0.652-1.092 1.01-1.498h-2.805z"/><path d="m55.508 445.42v-5.727h1.973c0.445 0 0.785 0.027 1.02 0.082 0.328 0.075 0.607 0.212 0.84 0.41 0.302 0.255 0.527 0.581 0.678 0.979 0.149 0.397 0.225 0.851 0.225 1.361 0 0.435-0.051 0.82-0.152 1.156s-0.232 0.614-0.391 0.834-0.333 0.394-0.521 0.52c-0.189 0.126-0.417 0.222-0.684 0.287-0.268 0.065-0.574 0.098-0.92 0.098h-2.068zm0.757-0.676h1.223c0.377 0 0.674-0.035 0.889-0.105s0.386-0.169 0.514-0.297c0.18-0.18 0.319-0.421 0.42-0.725 0.1-0.304 0.15-0.671 0.15-1.104 0-0.599-0.099-1.06-0.295-1.381-0.197-0.321-0.436-0.537-0.717-0.646-0.203-0.078-0.53-0.117-0.98-0.117h-1.203v4.375z"/></g><g enable-background="new    " fill="#fff"><path d="m4.814 455.02v-5.727h1.141l1.355 4.055c0.125 0.378 0.217 0.66 0.273 0.848 0.064-0.208 0.166-0.515 0.305-0.918l1.371-3.984h1.02v5.727h-0.73v-4.793l-1.664 4.793h-0.684l-1.656-4.875v4.875h-0.731z"/><path d="m10.873 455.02 2.199-5.727h0.816l2.344 5.727h-0.863l-0.668-1.734h-2.395l-0.629 1.734h-0.804zm1.652-2.352h1.941l-0.598-1.586c-0.182-0.481-0.318-0.878-0.406-1.188-0.072 0.367-0.176 0.731-0.309 1.094l-0.628 1.68z"/><path d="m16.838 455.02v-5.727h1.973c0.445 0 0.785 0.027 1.02 0.082 0.328 0.075 0.607 0.212 0.84 0.41 0.303 0.255 0.527 0.581 0.678 0.979s0.225 0.851 0.225 1.361c0 0.435-0.051 0.82-0.152 1.156s-0.232 0.614-0.391 0.834-0.332 0.394-0.521 0.52-0.416 0.222-0.684 0.287-0.574 0.098-0.92 0.098h-2.068zm0.757-0.676h1.223c0.377 0 0.674-0.035 0.889-0.105s0.387-0.169 0.514-0.297c0.18-0.18 0.32-0.421 0.42-0.725s0.15-0.671 0.15-1.104c0-0.599-0.098-1.06-0.295-1.381s-0.436-0.537-0.717-0.646c-0.203-0.078-0.529-0.117-0.98-0.117h-1.203v4.375z"/><path d="m22.631 455.02v-5.727h4.141v0.676h-3.383v1.754h3.168v0.672h-3.168v1.949h3.516v0.676h-4.274z"/><path d="m30.302 455.02v-5.727h0.758v5.727h-0.758z"/><path d="m32.388 455.02v-5.727h0.777l3.008 4.496v-4.496h0.727v5.727h-0.777l-3.008-4.5v4.5h-0.727z"/><path d="m40.01 453.395 0.684-0.094c0.018 0.438 0.1 0.737 0.246 0.898s0.348 0.242 0.605 0.242c0.189 0 0.354-0.044 0.492-0.131s0.232-0.206 0.285-0.355 0.078-0.389 0.078-0.717v-3.945h0.758v3.902c0 0.479-0.059 0.851-0.174 1.113s-0.299 0.464-0.551 0.602-0.547 0.207-0.885 0.207c-0.502 0-0.887-0.145-1.154-0.434s-0.394-0.718-0.384-1.288z"/><path d="m43.767 455.02 2.199-5.727h0.816l2.344 5.727h-0.863l-0.668-1.734h-2.395l-0.629 1.734h-0.804zm1.653-2.352h1.941l-0.598-1.586c-0.182-0.481-0.318-0.878-0.406-1.188-0.072 0.367-0.176 0.731-0.309 1.094l-0.628 1.68z"/><path d="m49.732 455.02v-5.727h2.16c0.381 0 0.67 0.019 0.871 0.055 0.281 0.047 0.518 0.136 0.707 0.268s0.344 0.315 0.459 0.553 0.174 0.497 0.174 0.781c0 0.487-0.154 0.899-0.465 1.236s-0.869 0.506-1.68 0.506h-1.468v2.328h-0.758zm0.758-3.004h1.48c0.49 0 0.838-0.091 1.043-0.273s0.309-0.438 0.309-0.77c0-0.239-0.061-0.444-0.182-0.615s-0.281-0.283-0.479-0.338c-0.127-0.034-0.363-0.051-0.707-0.051h-1.464v2.047z"/><path d="m53.845 455.02 2.199-5.727h0.816l2.344 5.727h-0.863l-0.668-1.734h-2.395l-0.629 1.734h-0.804zm1.653-2.352h1.941l-0.598-1.586c-0.183-0.481-0.318-0.878-0.406-1.188-0.073 0.367-0.176 0.731-0.309 1.094l-0.628 1.68z"/><path d="m59.802 455.02v-5.727h0.777l3.008 4.496v-4.496h0.727v5.727h-0.777l-3.008-4.5v4.5h-0.727z"/></g></g><rect fill-opacity=".215686" height="147.969" width="7.087" y="37.003" x="172.925" fill="#fff"/><rect fill-opacity=".215686" height="167.548" width="7.087" y="17.4235" x="295.523" fill="#fff"/><path stroke-linejoin="round" d="m297.928 20.563 0.43 0.85v38.55h-4.25v34.02h4.25v88.3l-0.28 0.85-1.14 0.14h-118.15l-0.76-0.57-0.14-0.57v-101.85l2.829 0.09v-9.07l-2.829 0.04v-29.8l21.26-21.26h97.93l0.85 0.28z" stroke="#000" stroke-linecap="round" stroke-miterlimit="3" stroke-width="0.72" fill="none"/><rect stroke-linejoin="round" fill-opacity=".860335" transform="scale(-1,1)" height="16.157" width="4.252" stroke="#000" stroke-linecap="round" stroke-miterlimit="3" y="60.814" x="-298.358" stroke-width="0.72" fill="#ff8300"/><g transform="translate(54.5783,-127.145)"><path stroke-linejoin="round" d="m100.35 350.67-1.141-0.57h-88.439l-1.7 0.57-0.57 1.7v23.241l-8.5 8.509v14.689 58.35l0.24 0.561 0.94 0.1h98.7l0.63-0.379 0.12-0.371v-67.32-5.9l0.27-32.13-0.55-1.05z" stroke="#000" stroke-linecap="round" stroke-miterlimit="3" stroke-width=".72" fill="#4d4d4d"/></g><g transform="translate(57.4129,-210.767)"><rect fill-opacity=".3" height="28.347" width="7.087" y="429.471" x="0" fill="#fff"/></g><g transform="translate(153.791,-210.767)"><rect fill-opacity=".3" height="28.347" width="7.087" y="429.471" x="0" fill="#fff"/></g><g transform="translate(50.3263,-190.925)"><ellipse fill-opacity=".3" rx="4.252" ry="2.48" cy="455.338" cx="4.252" fill="#fff"/></g><g transform="translate(150.956,-190.925)"><ellipse fill-opacity=".3" rx="4.252" ry="2.834" cy="454.983" cx="4.252" fill="#fff"/></g><g transform="translate(116.5,-212.027)"><desc>▲</desc><g enable-background="new    "><path fill="#fff" d="m21.38 451.72 4.507-9.007 4.507 9.007h-9.014z"/></g></g><path fill="#fff" d="m86.0278 286.951h2.09v-23.64c0.689-1.59 3.76-1.59 4.56 0.21v23.22h5.69v-25.76c0-5.9-10.57-6.221-12.63-3.04-1.88-3.27-12.38-3-12.38 2.96v25.75h5.55v-23.221c0.78-1.789 3.78-1.789 4.45-0.209v23.64h2.029l0.641 0.09z"/><path fill="#fff" d="m108.175 266.291zc0.149-1.78-1.174-3.346-2.955-3.495-1.781-0.148-3.346 1.175-3.494 2.956-0.016 0.179-0.016 0.36 0 0.539l-0.01 9.94h6.47v-9.94h-0.011z"/><path fill="none" d="m108.175 266.291c0.149-1.78-1.174-3.346-2.955-3.495-1.781-0.148-3.346 1.175-3.494 2.956-0.016 0.179-0.016 0.36 0 0.539l-0.01 9.94h6.47v-9.94"/><circle cy="259.123" cx="104.952" r="3.236" fill="#fff"/><path fill="#fff" d="m121.454 276.123h5.641v-12.34c0.129-4.396-3.331-8.064-7.727-8.194-4.396-0.129-8.064 3.331-8.194 7.727-0.004 0.156-0.004 0.313 0 0.468v12.34h5.31v-12.28c0.066-1.372 1.232-2.431 2.604-2.364 1.28 0.062 2.304 1.085 2.365 2.364v12.279zm5.64-12.34z"/><path fill="none" d="m121.454 276.123h5.641v-12.34c0.129-4.396-3.331-8.064-7.727-8.194-4.396-0.129-8.064 3.331-8.194 7.727-0.004 0.156-0.004 0.313 0 0.468v12.34h5.31v-12.28c0.066-1.372 1.232-2.431 2.604-2.364 1.28 0.062 2.304 1.085 2.365 2.364v12.279m5.641-12.34"/><path fill="#fff" d="m136.874 266.403zc0.149-1.781-1.174-3.346-2.955-3.494-1.781-0.149-3.346 1.174-3.495 2.955-0.015 0.18-0.015 0.359 0 0.539l-0.01 9.94h6.47v-9.939h-0.01z"/><path fill="none" d="m136.874 266.403c0.149-1.781-1.174-3.346-2.955-3.494-1.781-0.149-3.346 1.174-3.495 2.955-0.015 0.18-0.015 0.359 0 0.539l-0.01 9.94h6.47v-9.939"/><g fill="#fff"><circle cy="259.235" cx="133.65" r="3.236"/><path d="m103.082 283.826c-1.25-1.25-1.3-2.16-1.24-2.8 0.04-0.561 0.16-0.92 0.561-1.25 1.09-0.9 4.229-1.58 8.189-1.79h8.141l-1.04 2.51h-10.231c-0.83 0.21-1.16 0.3-1.07 0.57 0.12 0.319 0.851 0.88 1.28 0.89l2.51 0.83c1.87 0.63 2.88 0.79 3.91 1.58 0.88 0.67 1.771 1.78 1.71 2.859-0.1 1.871-3.06 3.641-5.21 3.701h-13.35l1.46-4.381 7.51 0.62c0.34 0.24 2.51 0.011 2.83-0.37 0.4-0.47-2.13-1.16-2.83-1.51l-3.13-1.459z"/><path d="m128.12 278.401-3.96 2.51c-1.67-0.42-1.88-0.42-3.76-0.63l1.04-2.5c2.92 0 3.97 0.21 6.68 0.62z"/><path d="m132.504 279.551c-1-0.5-2.069-0.649-3.239-0.83l-4.17 2.5 0.939 0.42 6.47-2.09z"/><path d="m116.436 291.13c5.05 0.31 11.92-0.701 14.93-1.73 0.94-0.32 1.5-0.65 3.01-1.68 1.061-0.721 2.601-1.811 3.181-2.94 0.54-1.04 0.27-2.13-0.311-2.83-0.59-0.72-1.51-1.04-3.49-1.87l-7.1 2.19c0 2.399-3.75 3.439-8.13 3.439l-2.09 5.421z"/></g><g transform="translate(54.5783,-128.563)"><desc>2</desc><g enable-background="new    "><path fill="#fff" d="m37.856 450.31v-1.688c0.56-1.309 1.691-2.734 3.396-4.277l1.103-0.986c1.418-1.283 2.127-2.556 2.127-3.819 0-0.805-0.242-1.437-0.727-1.897s-1.153-0.691-2.005-0.691c-0.996 0-2.173 0.38-3.533 1.141v-1.688c1.283-0.604 2.559-0.906 3.829-0.906 1.354 0 2.44 0.364 3.258 1.094 0.817 0.729 1.226 1.696 1.226 2.899 0 0.866-0.207 1.635-0.62 2.306s-1.183 1.484-2.308 2.441l-0.742 0.635c-1.542 1.309-2.433 2.559-2.674 3.75h6.281v1.688h-8.611z"/></g></g><g transform="translate(85.7594,-129.901)"><desc>GB</desc><g enable-background="new    " fill="#fff"><path d="m22.75 448.079v-1.102h3.938v3.447c-0.604 0.481-1.229 0.844-1.871 1.087-0.643 0.243-1.303 0.364-1.979 0.364-0.913 0-1.743-0.195-2.49-0.587-0.746-0.392-1.31-0.958-1.69-1.699-0.38-0.74-0.571-1.567-0.571-2.482 0-0.905 0.189-1.751 0.568-2.536s0.923-1.368 1.633-1.749 1.529-0.571 2.455-0.571c0.672 0 1.28 0.109 1.824 0.327 0.543 0.219 0.969 0.523 1.278 0.913s0.544 0.898 0.705 1.526l-1.108 0.305c-0.14-0.475-0.313-0.848-0.52-1.119s-0.503-0.489-0.888-0.652-0.812-0.245-1.281-0.245c-0.562 0-1.048 0.086-1.458 0.257-0.41 0.172-0.741 0.397-0.992 0.677s-0.447 0.586-0.586 0.921c-0.237 0.575-0.355 1.199-0.355 1.873 0 0.829 0.143 1.523 0.428 2.082 0.286 0.56 0.701 0.975 1.246 1.245s1.125 0.406 1.737 0.406c0.533 0 1.053-0.103 1.56-0.307s0.892-0.423 1.154-0.654v-1.727h-2.737z"/><path d="m28.455 451.72v-9.305h3.488c0.71 0 1.28 0.094 1.709 0.282s0.765 0.479 1.008 0.869 0.365 0.801 0.365 1.228c0 0.397-0.108 0.771-0.323 1.123-0.216 0.351-0.541 0.634-0.977 0.85 0.563 0.165 0.996 0.446 1.299 0.845 0.303 0.397 0.454 0.868 0.454 1.409 0 0.437-0.092 0.842-0.276 1.217-0.184 0.374-0.412 0.663-0.682 0.866-0.271 0.203-0.61 0.357-1.019 0.461s-0.908 0.155-1.5 0.155h-3.546zm1.235-5.398h2.009c0.545 0 0.936-0.036 1.172-0.107 0.313-0.093 0.548-0.247 0.706-0.462 0.159-0.216 0.238-0.486 0.238-0.811 0-0.309-0.074-0.58-0.222-0.813-0.148-0.234-0.359-0.396-0.634-0.481-0.275-0.087-0.746-0.13-1.413-0.13h-1.856v2.804zm0 4.297h2.315c0.397 0 0.676-0.015 0.837-0.044 0.283-0.051 0.521-0.136 0.71-0.254 0.19-0.118 0.347-0.291 0.469-0.517 0.123-0.227 0.184-0.487 0.184-0.783 0-0.347-0.089-0.647-0.268-0.903s-0.426-0.436-0.74-0.539c-0.315-0.104-0.768-0.155-1.359-0.155h-2.148v3.195z"/></g></g><path stroke-linejoin="round" d="m76.6628 326.896h57.878c0.651 0 1.18 0.528 1.18 1.179v0c0 0.652-0.528 1.18-1.18 1.18h-57.878c-0.651 0-1.179-0.527-1.179-1.18v0c0-0.65 0.528-1.179 1.179-1.179z" fill-opacity=".301961" stroke="#000" stroke-linecap="round" stroke-miterlimit="3" stroke-width="0.72" fill="#fff"/><g transform="matrix(-1,0,0,1,278.785,-127.145)"><path stroke-linejoin="round" d="m100.35 350.67-1.14-0.57h-88.44l-1.699 0.57-0.57 1.7v23.241l-8.501 8.509v14.689 58.35l0.24 0.561 0.939 0.1h98.7l0.63-0.379 0.12-0.371v-67.32-5.9l0.27-32.13-0.549-1.05z" stroke="#000" stroke-linecap="round" stroke-miterlimit="3" stroke-width=".72" fill="#4d4d4d"/></g><g transform="translate(186.956,-206.515)"><linearGradient id="k" y2="845.804" gradientUnits="userSpaceOnUse" x2="-309.752" gradientTransform="matrix(6.2362 0 0 -21.2598 1934.8 18439.4)" y1="846.804" x1="-309.752"><stop stop-color="#cc0" offset="0"/><stop stop-color="#E6E600" offset="1"/></linearGradient><rect height="21.261" width="6.236" y="436.558" x="0" fill="url(#k)"/></g><g transform="translate(194.043,-206.515)"><linearGradient id="j" y2="845.804" gradientUnits="userSpaceOnUse" x2="-316.839" gradientTransform="matrix(6.2362 0 0 -21.2598 1978.99 18439.4)" y1="846.804" x1="-316.839"><stop stop-color="#cc0" offset="0"/><stop stop-color="#E6E600" offset="1"/></linearGradient><rect height="21.261" width="6.236" y="436.558" x="0" fill="url(#j)"/></g><g transform="translate(201.129,-206.515)"><linearGradient id="i" y2="845.804" gradientUnits="userSpaceOnUse" x2="-323.925" gradientTransform="matrix(6.2362 0 0 -21.2598 2023.18 18439.4)" y1="846.804" x1="-323.925"><stop stop-color="#cc0" offset="0"/><stop stop-color="#E6E600" offset="1"/></linearGradient><rect height="21.261" width="6.236" y="436.558" x="0" fill="url(#i)"/></g><g transform="translate(208.216,-206.515)"><linearGradient id="h" y2="846.367" gradientUnits="userSpaceOnUse" x2="-331.012" gradientTransform="matrix(6.2362 0 0 -22.6772 2067.38 19651.1)" y1="847.367" x1="-331.012"><stop stop-color="#cc0" offset="0"/><stop stop-color="#E6E600" offset="1"/></linearGradient><rect height="22.678" width="6.236" y="435.141" x="0" fill="url(#h)"/></g><g transform="translate(215.303,-206.515)"><linearGradient id="g" y2="845.804" gradientUnits="userSpaceOnUse" x2="-338.098" gradientTransform="matrix(6.2362 0 0 -21.2598 2111.57 18439.4)" y1="846.804" x1="-338.098"><stop stop-color="#cc0" offset="0"/><stop stop-color="#E6E600" offset="1"/></linearGradient><rect height="21.261" width="6.235" y="436.558" x="0" fill="url(#g)"/></g><g transform="translate(222.389,-206.515)"><linearGradient id="f" y2="845.804" gradientUnits="userSpaceOnUse" x2="-345.184" gradientTransform="matrix(6.2362 0 0 -21.2598 2155.76 18439.4)" y1="846.804" x1="-345.184"><stop stop-color="#cc0" offset="0"/><stop stop-color="#E6E600" offset="1"/></linearGradient><rect height="21.261" width="6.235" y="436.558" x="0" fill="url(#f)"/></g><g transform="translate(229.476,-206.515)"><linearGradient id="e" y2="846.367" gradientUnits="userSpaceOnUse" x2="-352.272" gradientTransform="matrix(6.2362 0 0 -22.6772 2199.96 19651.1)" y1="847.367" x1="-352.272"><stop stop-color="#cc0" offset="0"/><stop stop-color="#E6E600" offset="1"/></linearGradient><rect height="22.678" width="6.236" y="435.141" x="0" fill="url(#e)"/></g><g transform="translate(236.563,-206.515)"><linearGradient id="d" y2="845.804" gradientUnits="userSpaceOnUse" x2="-359.358" gradientTransform="matrix(6.2362 0 0 -21.2598 2244.16 18439.4)" y1="846.804" x1="-359.358"><stop stop-color="#cc0" offset="0"/><stop stop-color="#E6E600" offset="1"/></linearGradient><rect height="21.261" width="6.236" y="436.558" x="0" fill="url(#d)"/></g><g transform="translate(243.649,-206.515)"><linearGradient id="c" y2="845.804" gradientUnits="userSpaceOnUse" x2="-366.444" gradientTransform="matrix(6.2362 0 0 -21.2598 2288.35 18439.4)" y1="846.804" x1="-366.444"><stop stop-color="#cc0" offset="0"/><stop stop-color="#E6E600" offset="1"/></linearGradient><rect height="21.261" width="6.236" y="436.558" x="0" fill="url(#c)"/></g><g transform="translate(250.736,-206.515)"><linearGradient id="b" y2="845.804" gradientUnits="userSpaceOnUse" x2="-373.531" gradientTransform="matrix(6.2362 0 0 -21.2598 2332.54 18439.4)" y1="846.804" x1="-373.531"><stop stop-color="#cc0" offset="0"/><stop stop-color="#E6E600" offset="1"/></linearGradient><rect height="21.261" width="6.236" y="436.558" x="0" fill="url(#b)"/></g><g transform="translate(257.822,-206.515)"><linearGradient id="a" y2="845.804" gradientUnits="userSpaceOnUse" x2="-379.497" gradientTransform="matrix(5.9528 0 0 -21.2598 2262.03 18439.4)" y1="846.804" x1="-379.497"><stop stop-color="#cc0" offset="0"/><stop stop-color="#E6E600" offset="1"/></linearGradient><rect height="21.261" width="5.953" y="436.558" x="0" fill="url(#a)"/></g><g transform="translate(195.87,-134.074)"><desc>WPD07Y8J4F MADE IN JAPAN</desc><g enable-background="new    " fill="#fff"><path d="m16.966 446.02-1.142-4.297h0.584l0.653 2.817c0.072 0.294 0.134 0.587 0.183 0.879 0.109-0.459 0.174-0.723 0.193-0.793l0.818-2.903h0.686l0.617 2.175c0.152 0.539 0.264 1.047 0.334 1.521 0.057-0.271 0.128-0.581 0.213-0.934l0.676-2.763h0.57l-1.176 4.297h-0.551l-0.902-3.274c-0.077-0.273-0.123-0.441-0.139-0.504-0.046 0.199-0.088 0.368-0.126 0.507l-0.907 3.271h-0.584z"/><path d="m21.879 446.02v-4.297h1.619c0.285 0 0.503 0.014 0.653 0.041 0.21 0.035 0.388 0.103 0.53 0.201s0.257 0.236 0.344 0.415c0.087 0.178 0.131 0.373 0.131 0.586 0 0.365-0.117 0.675-0.349 0.928s-0.651 0.38-1.259 0.38h-1.1v1.746h-0.569zm0.57-2.254h1.108c0.366 0 0.627-0.068 0.781-0.205 0.153-0.137 0.231-0.329 0.231-0.577 0-0.18-0.046-0.334-0.137-0.461-0.09-0.129-0.21-0.213-0.358-0.254-0.095-0.025-0.272-0.038-0.529-0.038h-1.097v1.535z"/><path d="m25.881 446.02v-4.297h1.478c0.333 0 0.588 0.021 0.764 0.062 0.245 0.057 0.456 0.159 0.63 0.308 0.226 0.191 0.395 0.437 0.507 0.734s0.169 0.639 0.169 1.021c0 0.326-0.039 0.615-0.115 0.867-0.076 0.253-0.173 0.461-0.292 0.626s-0.249 0.295-0.391 0.39-0.313 0.167-0.513 0.216c-0.199 0.049-0.43 0.073-0.689 0.073h-1.548zm0.57-0.508h0.914c0.283 0 0.504-0.026 0.665-0.079s0.289-0.127 0.384-0.223c0.135-0.135 0.24-0.316 0.314-0.543 0.075-0.229 0.113-0.504 0.113-0.828 0-0.449-0.074-0.795-0.221-1.035-0.147-0.242-0.326-0.403-0.537-0.485-0.152-0.059-0.396-0.088-0.732-0.088h-0.9v3.281z"/><path d="m29.998 443.9c0-0.508 0.053-0.917 0.156-1.228 0.105-0.311 0.26-0.55 0.466-0.718 0.206-0.167 0.465-0.251 0.776-0.251 0.23 0 0.433 0.047 0.607 0.14s0.317 0.227 0.43 0.401 0.201 0.389 0.266 0.64 0.096 0.59 0.096 1.016c0 0.505-0.051 0.912-0.154 1.223s-0.258 0.551-0.464 0.719c-0.206 0.169-0.466 0.253-0.78 0.253-0.413 0-0.738-0.147-0.974-0.444-0.283-0.359-0.425-0.943-0.425-1.751zm0.543 0.001c0 0.707 0.082 1.177 0.247 1.41s0.368 0.35 0.608 0.35c0.242 0 0.445-0.117 0.609-0.351s0.246-0.704 0.246-1.409c0-0.708-0.082-1.178-0.246-1.411-0.164-0.232-0.369-0.349-0.615-0.349-0.24 0-0.434 0.103-0.578 0.308-0.18 0.262-0.271 0.746-0.271 1.452z"/><path d="m33.37 442.286v-0.508h2.777v0.411c-0.272 0.291-0.543 0.678-0.811 1.161-0.269 0.482-0.475 0.979-0.62 1.488-0.105 0.36-0.173 0.754-0.202 1.182h-0.543c0.006-0.338 0.072-0.746 0.198-1.226 0.127-0.479 0.309-0.94 0.546-1.385s0.489-0.819 0.756-1.124h-2.101z"/><path d="m38.095 446.02v-1.82l-1.656-2.477h0.685l0.849 1.301c0.156 0.242 0.304 0.485 0.44 0.729 0.131-0.229 0.289-0.483 0.473-0.765l0.833-1.266h0.662l-1.715 2.477v1.82h-0.571z"/><path d="m41.486 443.691c-0.221-0.081-0.383-0.195-0.489-0.344s-0.159-0.327-0.159-0.534c0-0.313 0.112-0.576 0.337-0.789 0.224-0.214 0.522-0.32 0.896-0.32 0.375 0 0.677 0.109 0.905 0.327s0.343 0.483 0.343 0.797c0 0.199-0.053 0.373-0.156 0.521-0.105 0.148-0.264 0.262-0.477 0.343 0.264 0.086 0.464 0.225 0.602 0.416 0.139 0.191 0.207 0.42 0.207 0.686 0 0.367-0.13 0.677-0.389 0.927-0.26 0.25-0.602 0.375-1.025 0.375s-0.766-0.126-1.025-0.377-0.389-0.564-0.389-0.939c0-0.279 0.07-0.514 0.213-0.702s0.342-0.319 0.606-0.387zm-0.277 1.09c0 0.15 0.035 0.296 0.105 0.438 0.07 0.141 0.176 0.249 0.316 0.326 0.141 0.078 0.292 0.116 0.453 0.116 0.253 0 0.461-0.081 0.623-0.243s0.244-0.369 0.244-0.619c0-0.254-0.084-0.465-0.252-0.631-0.167-0.166-0.378-0.249-0.633-0.249-0.248 0-0.453 0.082-0.615 0.246-0.16 0.165-0.241 0.37-0.241 0.616zm0.172-1.986c0 0.204 0.064 0.37 0.194 0.499 0.13 0.13 0.3 0.194 0.509 0.194 0.203 0 0.369-0.064 0.498-0.192s0.193-0.285 0.193-0.472c0-0.194-0.066-0.356-0.199-0.489-0.133-0.132-0.299-0.198-0.498-0.198-0.201 0-0.368 0.064-0.5 0.194-0.131 0.129-0.197 0.284-0.197 0.464z"/><path d="m43.932 444.805 0.512-0.07c0.014 0.327 0.075 0.55 0.185 0.671 0.109 0.12 0.262 0.181 0.455 0.181 0.143 0 0.266-0.032 0.369-0.099 0.104-0.065 0.175-0.154 0.214-0.267s0.059-0.291 0.059-0.537v-2.961h0.57v2.929c0 0.359-0.044 0.639-0.13 0.836-0.088 0.197-0.226 0.348-0.414 0.451s-0.41 0.155-0.664 0.155c-0.377 0-0.666-0.108-0.867-0.324-0.2-0.217-0.296-0.538-0.289-0.965z"/><path d="m48.698 446.02v-1.027h-1.859v-0.484l1.957-2.785h0.43v2.785h0.582v0.484h-0.582v1.027h-0.528zm0-1.512v-1.936l-1.341 1.936h1.341z"/><path d="m50.59 446.02v-4.297h2.895v0.508h-2.325v1.328h2.012v0.508h-2.012v1.953h-0.57z"/></g><g enable-background="new    " fill="#fff"><path d="m11.815 453.22v-4.297h0.851l1.02 3.041c0.094 0.283 0.163 0.495 0.206 0.636 0.049-0.156 0.126-0.386 0.229-0.688l1.031-2.988h0.765v4.297h-0.547v-3.598l-1.253 3.598h-0.513l-1.242-3.656v3.656h-0.547z"/><path d="m16.358 453.22 1.648-4.297h0.613l1.759 4.297h-0.647l-0.497-1.301h-1.803l-0.47 1.301h-0.603zm1.239-1.765h1.455l-0.446-1.188c-0.138-0.361-0.239-0.658-0.307-0.891-0.054 0.275-0.132 0.548-0.231 0.819l-0.471 1.26z"/><path d="m20.835 453.22v-4.297h1.478c0.334 0 0.588 0.021 0.764 0.062 0.246 0.057 0.456 0.159 0.63 0.308 0.226 0.191 0.396 0.437 0.507 0.734 0.113 0.298 0.169 0.639 0.169 1.021 0 0.326-0.038 0.615-0.114 0.867-0.076 0.253-0.174 0.461-0.293 0.626s-0.249 0.295-0.391 0.39c-0.141 0.095-0.313 0.167-0.512 0.216-0.2 0.049-0.43 0.073-0.689 0.073h-1.549zm0.57-0.508h0.915c0.282 0 0.504-0.026 0.664-0.079 0.161-0.053 0.289-0.127 0.385-0.223 0.135-0.135 0.239-0.316 0.314-0.543 0.074-0.229 0.112-0.504 0.112-0.828 0-0.449-0.073-0.795-0.221-1.035-0.147-0.242-0.325-0.403-0.536-0.485-0.152-0.059-0.396-0.088-0.733-0.088h-0.9v3.281z"/><path d="m25.18 453.22v-4.297h3.102v0.508h-2.532v1.313h2.371v0.508h-2.371v1.461h2.633v0.508h-3.203z"/><path d="m30.93 453.22v-4.297h0.57v4.297h-0.57z"/><path d="m32.496 453.22v-4.297h0.584l2.252 3.372v-3.372h0.547v4.297h-0.586l-2.25-3.372v3.372h-0.547z"/><path d="m38.211 452.005 0.512-0.07c0.014 0.327 0.074 0.55 0.184 0.671 0.109 0.12 0.262 0.181 0.455 0.181 0.143 0 0.266-0.032 0.369-0.099 0.104-0.065 0.176-0.154 0.215-0.267s0.059-0.291 0.059-0.537v-2.961h0.57v2.929c0 0.359-0.044 0.639-0.131 0.836s-0.225 0.348-0.414 0.451c-0.188 0.104-0.41 0.155-0.664 0.155-0.377 0-0.666-0.108-0.866-0.324-0.201-0.217-0.297-0.538-0.289-0.965z"/><path d="m41.029 453.22 1.648-4.297h0.613l1.758 4.297h-0.646l-0.498-1.301h-1.803l-0.469 1.301h-0.603zm1.238-1.765h1.455l-0.445-1.188c-0.138-0.361-0.24-0.658-0.307-0.891-0.055 0.275-0.132 0.548-0.232 0.819l-0.471 1.26z"/><path d="m45.506 453.22v-4.297h1.619c0.285 0 0.503 0.014 0.653 0.041 0.21 0.035 0.388 0.103 0.53 0.201s0.257 0.236 0.344 0.415c0.087 0.178 0.131 0.373 0.131 0.586 0 0.365-0.117 0.675-0.349 0.928s-0.651 0.38-1.259 0.38h-1.1v1.746h-0.569zm0.57-2.254h1.108c0.366 0 0.627-0.068 0.781-0.205 0.153-0.137 0.231-0.329 0.231-0.577 0-0.18-0.046-0.334-0.137-0.461-0.09-0.129-0.21-0.213-0.358-0.254-0.095-0.025-0.272-0.038-0.529-0.038h-1.097v1.535z"/><path d="m48.588 453.22 1.648-4.297h0.613l1.758 4.297h-0.646l-0.498-1.301h-1.803l-0.469 1.301h-0.603zm1.238-1.765h1.455l-0.445-1.188c-0.138-0.361-0.24-0.658-0.307-0.891-0.055 0.275-0.132 0.548-0.232 0.819l-0.471 1.26z"/><path d="m53.055 453.22v-4.297h0.585l2.251 3.372v-3.372h0.547v4.297h-0.585l-2.251-3.372v3.372h-0.547z"/></g></g><g transform="matrix(0,-1,-1,0,536.491,424.783)"><path stroke-linejoin="round" d="m54.271 381.69-0.621-0.409h-45.43l-1.13 0.569v1.13 22.4l-7.09 8.5 0.06 7.74 0.29 0.479 0.57 0.28h1.99v5.11l-2.91 3.971v25.89l0.13 0.4 0.51 0.07h53.381l0.34-0.271 0.06-0.26v-47.83-4.2l0.149-22.83-0.299-0.739z" stroke="#000" stroke-linecap="round" stroke-miterlimit="3" stroke-width="0.72"/></g><path stroke-linejoin="round" d="m83.49 368.657c4.11 13.78 4.2 41.33 0 56.69" stroke-opacity=".25" stroke="#fff" stroke-linecap="round" stroke-miterlimit="3" stroke-width="0.72" fill="none"/><g transform="translate(81.5074,-59.6806)"><desc>2</desc><path fill="#fff" d="m10.952 448.81v-1.266c0.419-0.981 1.269-2.051 2.547-3.208l0.827-0.74c1.063-0.962 1.595-1.916 1.595-2.863 0-0.605-0.182-1.08-0.545-1.427s-0.864-0.52-1.503-0.52c-0.746 0-1.628 0.286-2.647 0.859v-1.266c0.962-0.453 1.919-0.68 2.872-0.68 1.016 0 1.83 0.273 2.443 0.82s0.919 1.271 0.919 2.175c0 0.649-0.155 1.226-0.466 1.729-0.31 0.503-0.888 1.113-1.733 1.831l-0.558 0.477c-1.158 0.981-1.828 1.919-2.009 2.813h4.711v1.266h-6.453z"/></g><g transform="translate(81.0665,-60.9405)"><desc>GB</desc><g enable-background="new    " fill="#fff"><path d="m23.977 447.973v-0.672l2.426-0.004v2.125c-0.373 0.297-0.756 0.521-1.152 0.67s-0.802 0.225-1.219 0.225c-0.563 0-1.074-0.12-1.533-0.361s-0.807-0.589-1.041-1.045-0.352-0.965-0.352-1.527c0-0.558 0.117-1.077 0.35-1.561s0.568-0.842 1.006-1.076 0.941-0.352 1.512-0.352c0.414 0 0.789 0.067 1.123 0.201s0.597 0.321 0.787 0.561 0.334 0.552 0.434 0.938l-0.684 0.188c-0.086-0.292-0.193-0.521-0.32-0.688s-0.31-0.3-0.547-0.4-0.5-0.15-0.789-0.15c-0.346 0-0.646 0.053-0.898 0.158s-0.457 0.244-0.611 0.416-0.275 0.36-0.361 0.566c-0.146 0.354-0.219 0.738-0.219 1.152 0 0.511 0.088 0.938 0.264 1.281s0.432 0.599 0.768 0.766 0.693 0.25 1.07 0.25c0.328 0 0.648-0.063 0.961-0.189s0.549-0.261 0.711-0.404v-1.066h-1.686z"/><path d="m27.489 450.22v-5.727h2.148c0.438 0 0.789 0.058 1.053 0.174s0.471 0.294 0.621 0.535 0.225 0.493 0.225 0.756c0 0.245-0.066 0.476-0.199 0.691s-0.333 0.391-0.602 0.523c0.346 0.102 0.613 0.274 0.799 0.52s0.279 0.534 0.279 0.867c0 0.269-0.057 0.518-0.17 0.748s-0.253 0.408-0.42 0.533-0.375 0.22-0.627 0.283-0.559 0.096-0.924 0.096h-2.183zm0.758-3.321h1.238c0.336 0 0.577-0.022 0.723-0.066 0.193-0.058 0.338-0.152 0.436-0.285s0.146-0.3 0.146-0.5c0-0.19-0.045-0.357-0.137-0.502s-0.221-0.243-0.391-0.297-0.459-0.08-0.871-0.08h-1.145v1.73zm0 2.645h1.426c0.245 0 0.417-0.009 0.516-0.027 0.174-0.031 0.32-0.083 0.438-0.156s0.213-0.179 0.289-0.318 0.113-0.3 0.113-0.482c0-0.214-0.055-0.399-0.164-0.557s-0.261-0.269-0.455-0.332-0.473-0.096-0.838-0.096h-1.324v1.968z"/></g></g><g transform="matrix(0,1,-1,0,597.278,368.94)"><desc>▲</desc><path fill="#fff" d="m5.188 452.339 2.773-5.543 2.773 5.543h-5.546z"/></g><path fill="#fff" d="m118.419 407.702h0.81v-9.109c0.26-0.611 1.45-0.611 1.75 0.08v8.949h2.2v-9.93c0-2.27-4.08-2.391-4.87-1.17-0.72-1.259-4.77-1.15-4.77 1.14v9.92h2.14v-8.94c0.3-0.689 1.46-0.689 1.71-0.08v9.101h0.79l0.24 0.039z"/><path fill="#fff" d="m126.154 399.668zc0.032-0.666-0.48-1.232-1.146-1.264-0.665-0.033-1.231 0.48-1.264 1.146-0.002 0.039-0.002 0.078 0 0.117v3.709h2.41v-3.708z"/><path fill="none" d="m126.154 399.668c0.032-0.666-0.48-1.232-1.146-1.264-0.665-0.033-1.231 0.48-1.264 1.146-0.002 0.039-0.002 0.078 0 0.117v3.709h2.41v-3.708"/><g fill="#fff"><circle cy="397" cx="124.95" r="1.206"/><path d="m131.159 395.864h-1.56v0.029c-2.03 0.255-3.461 2.053-3.198 4.015 0.229 1.707 1.681 3.015 3.458 3.116l1.3 0.01c0.509-0.003 0.961-0.283 1.13-0.7 0.221-0.547-0.11-1.146-0.738-1.337-0.088-0.027-0.179-0.045-0.271-0.053l-0.12-0.01h-1.291c-0.861-0.273-1.326-1.152-1.037-1.963 0.177-0.497 0.608-0.876 1.147-1.008h1.18c0.667 0 1.208-0.471 1.208-1.05s-0.541-1.049-1.208-1.049z"/><path d="m136.303 398.534zm2.02 0.571c0.325-1.408-0.504-2.824-1.853-3.164-0.33-0.084-0.673-0.096-1.008-0.037-1.367-0.238-2.662 0.726-2.891 2.154-0.014 0.084-0.023 0.17-0.029 0.256l-0.009 0.17v4.551h2.01v-0.35-1.631-2.52c-0.026-0.434 0.345-0.805 0.829-0.829s0.899 0.308 0.927 0.741c0.001 0.029 0.001 0.059 0 0.088l0.005 0.57h2.019z"/></g><path fill="none" d="m136.303 398.534m2.02 0.571c0.325-1.408-0.504-2.824-1.853-3.164-0.33-0.084-0.673-0.096-1.008-0.037-1.367-0.238-2.662 0.726-2.891 2.154-0.014 0.084-0.023 0.17-0.029 0.256l-0.009 0.17v4.551h2.01v-0.35-1.631-2.52c-0.026-0.434 0.345-0.805 0.829-0.829s0.899 0.308 0.927 0.741c0.001 0.029 0.001 0.059 0 0.088l0.005 0.57h2.019"/><path fill="#fff" d="m145.285 399.414c0.04-1.999-1.433-3.653-3.288-3.696-1.856-0.042-3.393 1.544-3.432 3.542-0.001 0.052-0.001 0.103 0 0.154-0.04 1.998 1.433 3.653 3.288 3.695s3.393-1.543 3.432-3.542c0.001-0.05 0.001-0.101 0-0.153zm-1.89 0c0-0.81-0.656-1.466-1.465-1.466-0.81 0-1.466 0.656-1.466 1.466s0.656 1.465 1.466 1.465c0.809 0 1.465-0.655 1.465-1.465z"/><circle cy="399.413" cx="142.027" r="1.559"/><g fill="#fff"><path d="m126.61 406.796c-0.68-0.67-0.7-1.16-0.67-1.511 0.02-0.299 0.09-0.489 0.3-0.67 0.59-0.479 2.28-0.85 4.42-0.959h4.38l-0.56 1.35h-5.51c-0.45 0.109-0.631 0.16-0.58 0.3 0.069 0.181 0.46 0.479 0.689 0.479l1.351 0.451c1.01 0.34 1.56 0.43 2.109 0.85 0.47 0.359 0.96 0.96 0.92 1.54-0.05 1.01-1.64 1.97-2.8 2h-7.199l0.79-2.36 4.05 0.33c0.181 0.13 1.341 0.01 1.521-0.189 0.22-0.26-1.15-0.631-1.521-0.82l-1.69-0.791z"/><path d="m140.101 403.879-2.141 1.35c-0.899-0.23-1.01-0.23-2.02-0.34l0.56-1.35c1.581 0.001 2.141 0.11 3.601 0.34z"/><path d="m142.461 404.493c-0.54-0.27-1.109-0.35-1.739-0.45l-2.251 1.351 0.51 0.229 3.48-1.13z"/><path d="m133.805 410.737c2.72 0.16 6.42-0.379 8.05-0.939 0.5-0.17 0.81-0.34 1.62-0.9 0.569-0.39 1.399-0.97 1.72-1.59 0.28-0.56 0.14-1.14-0.17-1.52-0.32-0.391-0.82-0.561-1.891-1.01l-3.819 1.18c0 1.29-2.021 1.859-4.391 1.859l-1.119 2.92z"/></g><g transform="matrix(0,1,-1,0,635.703,369.649)"><path stroke-linejoin="round" d="m54.27 381.69-0.62-0.409h-45.43l-1.13 0.569v1.13 22.4l-7.09 8.5 0.06 7.74 0.29 0.479 0.57 0.28h1.99v5.11l-2.91 3.971v25.89l0.13 0.4 0.51 0.07h53.38l0.34-0.271 0.061-0.26v-47.83-4.2l0.149-22.83-0.3-0.739z" stroke="#000" stroke-linecap="round" stroke-miterlimit="3" stroke-width=".72"/></g><g transform="matrix(0,1,-1,0,691.546,378.295)"><linearGradient id="s" y2="796.648" gradientUnits="userSpaceOnUse" x2="281.323" gradientTransform="matrix(0 -14.2248 -4.5354 0 3610.87 4445.37)" y1="795.648" x1="281.323"><stop stop-color="#cc0" offset="0"/><stop stop-color="#E6E600" offset="1"/></linearGradient><rect transform="matrix(2.578893e-6,1,-1,2.578893e-6,452.9737,448.4361)" height="4.535" width="14.225" y="448.438" x="-4.844" fill="url(#s)"/></g><g transform="matrix(0,1,-1,0,691.494,383.964)"><linearGradient id="r" y2="796.596" gradientUnits="userSpaceOnUse" x2="275.654" gradientTransform="matrix(0 -14.2248 -4.5354 0 3610.64 4364.72)" y1="795.596" x1="275.654"><stop stop-color="#cc0" offset="0"/><stop stop-color="#E6E600" offset="1"/></linearGradient><rect transform="matrix(2.578893e-6,1,-1,2.578893e-6,452.9725,448.4369)" height="4.535" width="14.225" y="448.438" x="-4.845" fill="url(#r)"/></g><g transform="matrix(0,1,-1,0,691.546,389.633)"><linearGradient id="q" y2="796.648" gradientUnits="userSpaceOnUse" x2="269.985" gradientTransform="matrix(0 -14.2248 -4.5354 0 3610.87 4284.09)" y1="795.648" x1="269.985"><stop stop-color="#cc0" offset="0"/><stop stop-color="#E6E600" offset="1"/></linearGradient><rect transform="matrix(2.578893e-6,1,-1,2.578893e-6,452.9736,448.4362)" height="4.535" width="14.225" y="448.438" x="-4.844" fill="url(#q)"/></g><g transform="matrix(0,1,-1,0,691.546,395.303)"><linearGradient id="p" y2="796.648" gradientUnits="userSpaceOnUse" x2="263.244" gradientTransform="matrix(0 -15.874 -4.5354 0 3610.87 4620.67)" y1="795.648" x1="263.244"><stop stop-color="#cc0" offset="0"/><stop stop-color="#E6E600" offset="1"/></linearGradient><rect transform="matrix(2.578893e-6,1,-1,2.578893e-6,452.1488,447.6116)" height="4.535" width="15.874" y="447.613" x="-5.669" fill="url(#p)"/></g><g transform="matrix(0,1,-1,0,691.494,400.972)"><linearGradient id="o" y2="796.596" gradientUnits="userSpaceOnUse" x2="258.646" gradientTransform="matrix(0 -14.2248 -4.5354 0 3610.64 4122.79)" y1="795.596" x1="258.646"><stop stop-color="#cc0" offset="0"/><stop stop-color="#E6E600" offset="1"/></linearGradient><rect transform="matrix(2.578893e-6,1,-1,2.578893e-6,452.9728,448.4366)" height="4.536" width="14.225" y="448.437" x="-4.845" fill="url(#o)"/></g><g transform="matrix(0,1,-1,0,691.546,406.641)"><linearGradient id="n" y2="796.647" gradientUnits="userSpaceOnUse" x2="251.906" gradientTransform="matrix(0 -15.874 -4.5354 0 3610.87 4440.69)" y1="795.647" x1="251.906"><stop stop-color="#cc0" offset="0"/><stop stop-color="#E6E600" offset="1"/></linearGradient><rect transform="matrix(2.578893e-6,1,-1,2.578893e-6,452.1487,447.6117)" height="4.535" width="15.874" y="447.613" x="-5.669" fill="url(#n)"/></g><g transform="matrix(0,1,-1,0,691.546,412.311)"><linearGradient id="m" y2="796.648" gradientUnits="userSpaceOnUse" x2="247.307" gradientTransform="matrix(0 -14.2248 -4.5354 0 3610.87 3961.5)" y1="795.648" x1="247.307"><stop stop-color="#cc0" offset="0"/><stop stop-color="#E6E600" offset="1"/></linearGradient><rect transform="matrix(2.578893e-6,1,-1,2.578893e-6,452.9734,448.4365)" height="4.535" width="14.225" y="448.438" x="-4.844" fill="url(#m)"/></g><g transform="matrix(0,1,-1,0,691.546,417.98)"><linearGradient id="l" y2="796.648" gradientUnits="userSpaceOnUse" x2="241.638" gradientTransform="matrix(0 -14.2248 -4.5354 0 3610.88 3880.86)" y1="795.648" x1="241.638"><stop stop-color="#cc0" offset="0"/><stop stop-color="#E6E600" offset="1"/></linearGradient><rect transform="matrix(2.578893e-6,1,-1,2.578893e-6,452.9733,448.4366)" height="4.535" width="14.225" y="448.438" x="-4.845" fill="url(#l)"/></g><g transform="translate(174.912,-33.6717)"><desc>MCSD07AUG27 MADE IN JAPAN</desc><g enable-background="new    " fill="#fff"><path d="m13.003 448.72v-2.863h0.57l0.682 2.027c0.063 0.188 0.108 0.33 0.137 0.424 0.033-0.104 0.084-0.257 0.154-0.459l0.689-1.992h0.51v2.863h-0.367v-2.395l-0.836 2.395h-0.342l-0.83-2.438v2.438h-0.367z"/><path d="m18.393 447.714 0.379 0.096c-0.079 0.312-0.222 0.549-0.428 0.712-0.207 0.163-0.459 0.245-0.758 0.245-0.309 0-0.559-0.063-0.752-0.188s-0.341-0.308-0.441-0.546c-0.102-0.238-0.152-0.494-0.152-0.768 0-0.298 0.057-0.559 0.172-0.78 0.113-0.222 0.275-0.391 0.485-0.506s0.441-0.173 0.694-0.173c0.285 0 0.526 0.073 0.722 0.219 0.194 0.146 0.331 0.351 0.407 0.615l-0.375 0.088c-0.066-0.208-0.162-0.36-0.288-0.455s-0.284-0.143-0.476-0.143c-0.219 0-0.402 0.053-0.551 0.158-0.146 0.105-0.25 0.247-0.311 0.425-0.06 0.178-0.09 0.361-0.09 0.55 0 0.243 0.036 0.456 0.107 0.638 0.07 0.182 0.181 0.317 0.33 0.407 0.15 0.09 0.313 0.135 0.486 0.135 0.213 0 0.393-0.062 0.539-0.184 0.15-0.122 0.25-0.303 0.301-0.545z"/><path d="m19.114 447.798 0.359-0.031c0.018 0.144 0.057 0.261 0.117 0.353 0.063 0.092 0.158 0.166 0.287 0.223s0.275 0.085 0.437 0.085c0.144 0 0.271-0.021 0.38-0.064 0.111-0.043 0.192-0.102 0.246-0.177s0.08-0.156 0.08-0.244c0-0.09-0.025-0.168-0.076-0.234-0.052-0.067-0.137-0.123-0.256-0.169-0.076-0.029-0.246-0.076-0.507-0.139-0.262-0.063-0.445-0.123-0.551-0.179-0.137-0.072-0.239-0.161-0.306-0.268-0.067-0.106-0.102-0.225-0.102-0.356 0-0.146 0.041-0.28 0.123-0.406s0.201-0.222 0.358-0.287 0.332-0.098 0.524-0.098c0.211 0 0.398 0.034 0.56 0.103s0.286 0.169 0.373 0.302 0.134 0.283 0.14 0.451l-0.363 0.027c-0.02-0.179-0.084-0.314-0.197-0.405-0.111-0.092-0.277-0.138-0.496-0.138-0.227 0-0.393 0.042-0.498 0.126-0.104 0.083-0.156 0.185-0.156 0.303 0 0.103 0.037 0.187 0.111 0.253 0.072 0.066 0.262 0.135 0.568 0.204s0.516 0.13 0.631 0.182c0.166 0.077 0.289 0.174 0.367 0.292 0.08 0.117 0.119 0.253 0.119 0.406 0 0.151-0.043 0.295-0.13 0.43s-0.212 0.239-0.375 0.313c-0.163 0.075-0.347 0.112-0.55 0.112-0.26 0-0.476-0.038-0.65-0.113s-0.312-0.189-0.411-0.341c-0.097-0.152-0.15-0.324-0.156-0.516z"/><path d="m21.907 448.72v-2.863h0.986c0.223 0 0.393 0.014 0.51 0.041 0.164 0.038 0.305 0.106 0.42 0.205 0.151 0.128 0.265 0.291 0.34 0.489 0.074 0.198 0.111 0.426 0.111 0.681 0 0.218-0.025 0.41-0.076 0.578s-0.115 0.307-0.195 0.417c-0.079 0.11-0.166 0.196-0.26 0.26-0.095 0.063-0.209 0.111-0.342 0.144-0.134 0.032-0.287 0.049-0.461 0.049h-1.033zm0.379-0.34h0.611c0.189 0 0.338-0.018 0.445-0.053s0.192-0.084 0.256-0.148c0.09-0.089 0.16-0.21 0.211-0.361 0.05-0.151 0.074-0.335 0.074-0.551 0-0.299-0.049-0.528-0.146-0.689-0.099-0.16-0.219-0.268-0.359-0.322-0.102-0.039-0.265-0.059-0.49-0.059h-0.602v2.183z"/><path d="m24.656 447.307c0-0.338 0.034-0.611 0.104-0.817 0.07-0.207 0.174-0.366 0.311-0.478s0.311-0.167 0.519-0.167c0.153 0 0.288 0.031 0.405 0.093s0.213 0.15 0.287 0.268c0.074 0.116 0.134 0.258 0.177 0.426 0.043 0.167 0.064 0.393 0.064 0.676 0 0.336-0.034 0.607-0.104 0.813-0.069 0.207-0.173 0.367-0.31 0.479s-0.311 0.168-0.521 0.168c-0.276 0-0.493-0.099-0.65-0.295-0.187-0.24-0.282-0.629-0.282-1.166zm0.363 0.001c0 0.471 0.055 0.783 0.165 0.938 0.109 0.155 0.244 0.232 0.405 0.232s0.296-0.077 0.405-0.233c0.11-0.155 0.165-0.467 0.165-0.937 0-0.471-0.055-0.783-0.164-0.938s-0.246-0.232-0.41-0.232c-0.161 0-0.29 0.068-0.386 0.205-0.12 0.174-0.18 0.495-0.18 0.965z"/><path d="m26.9 446.232v-0.34h1.855v0.275c-0.183 0.194-0.362 0.452-0.541 0.773s-0.317 0.652-0.415 0.992c-0.069 0.239-0.114 0.502-0.134 0.787h-0.363c0.004-0.226 0.048-0.497 0.132-0.816 0.086-0.319 0.207-0.627 0.364-0.923s0.325-0.546 0.504-0.749h-1.402z"/><path d="m28.934 448.72 1.1-2.863h0.411l1.17 2.863h-0.432l-0.331-0.867h-1.203l-0.313 0.867h-0.402zm0.823-1.176h0.977l-0.3-0.795c-0.093-0.24-0.161-0.438-0.205-0.596-0.037 0.187-0.089 0.37-0.155 0.552l-0.317 0.839z"/><path d="m33.793 445.857h0.379v1.653c0 0.287-0.032 0.516-0.098 0.685-0.065 0.17-0.183 0.308-0.353 0.413-0.17 0.106-0.393 0.159-0.668 0.159-0.268 0-0.487-0.046-0.658-0.139-0.17-0.093-0.291-0.226-0.364-0.401s-0.109-0.414-0.109-0.717v-1.653h0.379v1.649c0 0.249 0.022 0.432 0.069 0.55 0.046 0.117 0.125 0.208 0.238 0.271 0.111 0.063 0.25 0.096 0.412 0.096 0.278 0 0.477-0.063 0.596-0.189 0.117-0.126 0.177-0.368 0.177-0.728v-1.649z"/><path d="m36.142 447.599v-0.34h1.215v1.062c-0.187 0.147-0.378 0.26-0.576 0.334-0.198 0.075-0.401 0.112-0.609 0.112-0.281 0-0.536-0.061-0.767-0.181s-0.403-0.295-0.521-0.522-0.176-0.482-0.176-0.764c0-0.278 0.058-0.539 0.175-0.78s0.284-0.421 0.503-0.538 0.471-0.176 0.756-0.176c0.207 0 0.394 0.033 0.562 0.101s0.299 0.161 0.394 0.28c0.095 0.12 0.167 0.276 0.217 0.47l-0.342 0.094c-0.043-0.146-0.097-0.261-0.16-0.344-0.063-0.084-0.155-0.15-0.273-0.201-0.118-0.05-0.25-0.075-0.395-0.075-0.173 0-0.323 0.026-0.449 0.079s-0.228 0.122-0.306 0.208-0.138 0.181-0.181 0.284c-0.073 0.177-0.109 0.369-0.109 0.576 0 0.256 0.044 0.469 0.132 0.642 0.088 0.172 0.216 0.3 0.384 0.383s0.347 0.125 0.535 0.125c0.164 0 0.324-0.031 0.48-0.095 0.156-0.063 0.274-0.13 0.355-0.201v-0.532h-0.844z"/><path d="m39.621 448.38v0.34h-1.898c-0.003-0.085 0.011-0.166 0.042-0.245 0.048-0.129 0.125-0.256 0.232-0.381 0.105-0.125 0.26-0.27 0.461-0.433 0.311-0.256 0.521-0.458 0.631-0.606s0.165-0.289 0.165-0.423c0-0.139-0.05-0.256-0.149-0.351-0.1-0.096-0.23-0.144-0.391-0.144-0.17 0-0.305 0.051-0.406 0.152-0.103 0.102-0.154 0.242-0.155 0.422l-0.363-0.039c0.024-0.27 0.118-0.475 0.28-0.616s0.379-0.212 0.652-0.212c0.275 0 0.494 0.076 0.654 0.229s0.241 0.341 0.241 0.566c0 0.114-0.023 0.227-0.071 0.338-0.047 0.11-0.125 0.227-0.233 0.35-0.108 0.122-0.29 0.29-0.542 0.503-0.213 0.177-0.348 0.297-0.408 0.359-0.06 0.063-0.109 0.127-0.148 0.19h1.406z"/><path d="m40.018 446.232v-0.34h1.855v0.275c-0.183 0.194-0.363 0.452-0.541 0.773-0.18 0.321-0.317 0.652-0.414 0.992-0.07 0.239-0.115 0.502-0.135 0.787h-0.363c0.004-0.226 0.047-0.497 0.133-0.816 0.084-0.319 0.205-0.627 0.363-0.923 0.157-0.296 0.325-0.546 0.504-0.749h-1.402z"/></g><g enable-background="new    " fill="#fff"><path d="m11.913 453.52v-2.863h0.57l0.682 2.027c0.063 0.188 0.108 0.33 0.137 0.424 0.033-0.104 0.084-0.257 0.154-0.459l0.689-1.992h0.51v2.863h-0.367v-2.395l-0.836 2.395h-0.342l-0.83-2.438v2.438h-0.367z"/><path d="m14.95 453.52 1.1-2.863h0.41l1.17 2.863h-0.432l-0.33-0.867h-1.203l-0.314 0.867h-0.401zm0.822-1.176h0.977l-0.301-0.795c-0.092-0.24-0.16-0.438-0.205-0.596-0.037 0.187-0.088 0.37-0.154 0.552l-0.317 0.839z"/><path d="m17.929 453.52v-2.863h0.986c0.223 0 0.393 0.014 0.51 0.041 0.164 0.038 0.305 0.106 0.42 0.205 0.151 0.128 0.265 0.291 0.34 0.489 0.074 0.198 0.111 0.426 0.111 0.681 0 0.218-0.025 0.41-0.076 0.578s-0.115 0.307-0.195 0.417c-0.079 0.11-0.166 0.196-0.26 0.26-0.095 0.063-0.209 0.111-0.342 0.144-0.134 0.032-0.287 0.049-0.461 0.049h-1.033zm0.378-0.34h0.611c0.189 0 0.338-0.018 0.445-0.053s0.192-0.084 0.256-0.148c0.09-0.089 0.16-0.21 0.211-0.361 0.05-0.151 0.074-0.335 0.074-0.551 0-0.299-0.049-0.528-0.146-0.689-0.099-0.16-0.219-0.268-0.359-0.322-0.102-0.039-0.265-0.059-0.49-0.059h-0.602v2.183z"/><path d="m20.825 453.52v-2.863h2.07v0.34h-1.691v0.871h1.582v0.34h-1.582v0.973h1.758v0.34h-2.137z"/><path d="m24.664 453.52v-2.863h0.379v2.863h-0.379z"/><path d="m25.705 453.52v-2.863h0.389l1.506 2.249v-2.249h0.363v2.863h-0.389l-1.506-2.249v2.249h-0.363z"/><path d="m29.517 452.708 0.344-0.047c0.009 0.218 0.05 0.366 0.122 0.446s0.173 0.12 0.301 0.12c0.094 0 0.176-0.021 0.244-0.065 0.068-0.043 0.115-0.103 0.143-0.178 0.025-0.074 0.038-0.193 0.038-0.357v-1.97h0.379v1.95c0 0.239-0.028 0.425-0.087 0.556-0.058 0.132-0.148 0.231-0.274 0.301s-0.272 0.104-0.441 0.104c-0.251 0-0.442-0.072-0.575-0.216-0.135-0.145-0.198-0.36-0.194-0.644z"/><path d="m31.397 453.52 1.1-2.863h0.411l1.17 2.863h-0.432l-0.331-0.867h-1.203l-0.313 0.867h-0.402zm0.823-1.176h0.977l-0.3-0.795c-0.093-0.24-0.161-0.438-0.205-0.596-0.037 0.187-0.089 0.37-0.155 0.552l-0.317 0.839z"/><path d="m34.377 453.52v-2.863h1.079c0.189 0 0.335 0.009 0.436 0.027 0.141 0.023 0.258 0.068 0.354 0.134 0.094 0.065 0.171 0.158 0.229 0.276 0.059 0.118 0.087 0.249 0.087 0.391 0 0.243-0.077 0.449-0.231 0.618-0.156 0.169-0.436 0.253-0.84 0.253h-0.733v1.164h-0.381zm0.379-1.504h0.739c0.244 0 0.418-0.045 0.521-0.136s0.154-0.219 0.154-0.384c0-0.119-0.03-0.222-0.091-0.307s-0.141-0.141-0.238-0.168c-0.064-0.017-0.182-0.025-0.354-0.025h-0.731v1.02z"/><path d="m36.436 453.52 1.1-2.863h0.411l1.17 2.863h-0.432l-0.331-0.867h-1.203l-0.313 0.867h-0.402zm0.823-1.176h0.977l-0.3-0.795c-0.093-0.24-0.161-0.438-0.205-0.596-0.037 0.187-0.089 0.37-0.155 0.552l-0.317 0.839z"/><path d="m39.413 453.52v-2.863h0.389l1.506 2.249v-2.249h0.363v2.863h-0.389l-1.506-2.249v2.249h-0.363z"/></g></g><g><g transform="translate(9.22394,-437.539)"><path stroke-linejoin="round" d="m0 457.82h21.26" stroke="#000" stroke-linecap="round" stroke-miterlimit="3" stroke-width="0.72" fill="none"/></g><g transform="translate(7.80661,-273.129)"><path stroke-linejoin="round" d="m0 457.82h24.33" stroke="#000" stroke-linecap="round" stroke-miterlimit="3" stroke-width="0.72" fill="none"/></g><g transform="matrix(0,-1,1,0,-438.673,184.547)"><path stroke-linejoin="round" d="m0 457.82h164.27" stroke="#000" stroke-linecap="round" stroke-miterlimit="3" stroke-width="0.72" fill="none"/></g><g transform="matrix(0,-1,1,0,-435.271,184.547)"><path stroke-linejoin="round" d="m6.52 451.01-6.52 3.41 6.52 3.399" stroke="#000" stroke-linecap="round" stroke-miterlimit="3" stroke-width="0.72" fill="none"/></g><g transform="matrix(0,1,-1,0,473.562,20.4208)"><path stroke-linejoin="round" d="m6.52 451.01-6.52 3.41 6.52 3.4" stroke="#000" stroke-linecap="round" stroke-miterlimit="3" stroke-width="0.72" fill="none"/></g><g transform="matrix(0,-1,1,0,-437.098,177.948)"><desc>32.0mm</desc><rect transform="matrix(-.00000254711 -1 1 -.00000254711 -371.818 523.82)" height="152" width="20" y="371.818" x="66" fill="none"/><g enable-background="new    "><path d="m57.873 447.089c0.558 0.137 0.993 0.364 1.305 0.681 0.397 0.402 0.597 0.9 0.597 1.494 0 0.672-0.238 1.211-0.715 1.617-0.542 0.469-1.249 0.703-2.12 0.703-0.523 0-0.973-0.086-1.35-0.258s-0.659-0.404-0.846-0.697-0.281-0.623-0.281-0.99c0-0.297 0.072-0.531 0.216-0.703 0.145-0.172 0.326-0.258 0.544-0.258 0.199 0 0.359 0.065 0.479 0.196 0.121 0.131 0.182 0.31 0.182 0.537 0 0.145-0.031 0.267-0.094 0.366-0.062 0.1-0.171 0.192-0.327 0.278-0.167 0.09-0.251 0.176-0.251 0.258 0 0.117 0.06 0.25 0.179 0.396s0.294 0.264 0.527 0.352 0.526 0.132 0.881 0.132c0.613 0 1.067-0.151 1.361-0.454 0.295-0.303 0.442-0.788 0.442-1.456 0-0.699-0.125-1.196-0.376-1.491s-0.624-0.442-1.118-0.442c-0.132 0-0.298 0.017-0.496 0.049-0.16 0.024-0.274 0.037-0.345 0.037-0.117 0-0.207-0.024-0.271-0.074s-0.096-0.112-0.096-0.188c0-0.083 0.03-0.147 0.09-0.193 0.061-0.046 0.159-0.068 0.295-0.068l0.321 0.012 0.28 0.012c0.494 0 0.866-0.127 1.115-0.38 0.25-0.254 0.374-0.646 0.374-1.177 0-0.651-0.119-1.115-0.357-1.39s-0.593-0.413-1.065-0.413c-0.433 0-0.778 0.078-1.036 0.234-0.257 0.155-0.386 0.3-0.386 0.433 0 0.086 0.074 0.2 0.223 0.345 0.211 0.195 0.316 0.397 0.316 0.608 0 0.16-0.059 0.295-0.176 0.403-0.117 0.109-0.268 0.164-0.451 0.164-0.195 0-0.354-0.074-0.478-0.223s-0.185-0.355-0.185-0.621c0-0.414 0.148-0.781 0.445-1.102 0.421-0.453 1.024-0.68 1.808-0.68 0.733 0 1.318 0.197 1.756 0.592 0.437 0.396 0.655 0.884 0.655 1.466 0 0.418-0.118 0.779-0.354 1.084s-0.64 0.575-1.217 0.809z"/><path d="m62.217 450.137c-0.179 0.23 0.704 0.346 2.649 0.346 0.292 0 0.5-0.076 0.625-0.229 0.124-0.151 0.266-0.573 0.426-1.264h0.406l-0.191 2.43h-5.246v-0.316l1.703-1.94c0.948-1.031 1.518-1.68 1.708-1.945 0.273-0.379 0.472-0.745 0.597-1.099s0.188-0.675 0.188-0.965c0-0.48-0.133-0.858-0.397-1.134-0.266-0.275-0.634-0.413-1.105-0.413-0.531 0-0.963 0.127-1.299 0.381s-0.503 0.523-0.503 0.809c0 0.098 0.025 0.172 0.077 0.223 0.047 0.051 0.149 0.096 0.306 0.135 0.396 0.094 0.594 0.324 0.594 0.691 0 0.199-0.066 0.364-0.2 0.495s-0.303 0.196-0.511 0.196c-0.239 0-0.448-0.11-0.628-0.331s-0.27-0.509-0.27-0.864c0-0.398 0.103-0.761 0.308-1.087s0.514-0.594 0.928-0.803 0.859-0.313 1.335-0.313c0.473 0 0.911 0.102 1.315 0.305s0.708 0.47 0.911 0.8 0.305 0.691 0.305 1.082c0 0.27-0.051 0.543-0.152 0.82-0.102 0.277-0.25 0.537-0.444 0.779-0.335 0.418-0.68 0.775-1.035 1.072l-1.543 1.302c-0.393 0.327-0.678 0.606-0.857 0.837z"/><path d="m68.667 450.139c0.196 0 0.362 0.07 0.5 0.212 0.137 0.141 0.206 0.309 0.206 0.505 0 0.204-0.068 0.376-0.206 0.517-0.137 0.142-0.306 0.212-0.505 0.212-0.196 0-0.363-0.07-0.502-0.212-0.139-0.141-0.208-0.311-0.208-0.511s0.069-0.37 0.208-0.511c0.138-0.142 0.307-0.212 0.507-0.212z"/><path d="m73.686 443.139c0.762 0 1.397 0.297 1.905 0.891 0.629 0.731 0.944 1.839 0.944 3.323 0 1.379-0.273 2.43-0.821 3.15-0.547 0.721-1.208 1.081-1.981 1.081-0.746 0-1.37-0.303-1.87-0.908-0.625-0.762-0.938-1.862-0.938-3.3 0-1.367 0.295-2.455 0.885-3.265 0.473-0.648 1.098-0.972 1.876-0.972zm0.037 0.422c-0.516 0-0.918 0.247-1.208 0.741-0.289 0.494-0.434 1.519-0.434 3.073 0 1.52 0.149 2.533 0.448 3.041s0.701 0.762 1.205 0.762c0.508 0 0.899-0.234 1.173-0.703 0.324-0.559 0.486-1.578 0.486-3.059 0-1.531-0.152-2.557-0.457-3.076-0.305-0.52-0.709-0.779-1.213-0.779z"/><path d="m77.731 445.928 1.586-0.102c0.087 0.408 0.144 0.796 0.172 1.165 0.297-0.427 0.593-0.729 0.89-0.902 0.297-0.176 0.623-0.263 0.978-0.263 0.378 0 0.691 0.099 0.937 0.298 0.246 0.197 0.435 0.521 0.568 0.967 0.262-0.423 0.553-0.74 0.873-0.95s0.669-0.314 1.048-0.314c0.5 0 0.875 0.148 1.125 0.446 0.32 0.391 0.48 0.896 0.48 1.513v2.728c0 0.165 0.041 0.276 0.123 0.335 0.109 0.09 0.271 0.135 0.485 0.135h0.275v0.438h-2.758v-0.438h0.275c0.234 0 0.397-0.039 0.491-0.117 0.094-0.079 0.141-0.196 0.141-0.353v-2.733c0-0.407-0.1-0.723-0.298-0.946s-0.46-0.335-0.784-0.335c-0.246 0-0.468 0.065-0.667 0.196-0.199 0.132-0.355 0.318-0.468 0.562-0.167 0.349-0.251 0.645-0.251 0.888v2.369c0 0.16 0.043 0.278 0.129 0.355 0.086 0.076 0.22 0.114 0.4 0.114h0.376v0.438h-2.805v-0.438h0.315c0.199 0 0.347-0.039 0.444-0.117 0.098-0.078 0.146-0.179 0.146-0.3v-2.535c0-0.536-0.094-0.926-0.283-1.168-0.188-0.243-0.442-0.364-0.762-0.364-0.412 0-0.729 0.141-0.951 0.423-0.315 0.398-0.473 0.864-0.473 1.396v2.195c0 0.168 0.037 0.284 0.111 0.347 0.105 0.082 0.269 0.123 0.491 0.123h0.281v0.438h-2.781v-0.438h0.418c0.157 0 0.277-0.039 0.362-0.117s0.126-0.178 0.126-0.299v-3.6c0-0.199-0.051-0.348-0.153-0.445s-0.306-0.16-0.612-0.188v-0.407z"/><path d="m88.402 445.928 1.586-0.102c0.087 0.408 0.144 0.796 0.172 1.165 0.296-0.427 0.593-0.729 0.89-0.902 0.296-0.176 0.622-0.263 0.978-0.263 0.378 0 0.691 0.099 0.937 0.298 0.246 0.197 0.436 0.521 0.568 0.967 0.261-0.423 0.552-0.74 0.873-0.95 0.32-0.21 0.669-0.314 1.048-0.314 0.5 0 0.875 0.148 1.125 0.446 0.32 0.391 0.48 0.896 0.48 1.513v2.728c0 0.165 0.041 0.276 0.123 0.335 0.109 0.09 0.271 0.135 0.485 0.135h0.275v0.438h-2.758v-0.438h0.275c0.234 0 0.397-0.039 0.491-0.117 0.093-0.079 0.14-0.196 0.14-0.353v-2.733c0-0.407-0.1-0.723-0.298-0.946-0.199-0.224-0.46-0.335-0.784-0.335-0.246 0-0.468 0.065-0.667 0.196-0.199 0.132-0.355 0.318-0.468 0.562-0.167 0.349-0.251 0.645-0.251 0.888v2.369c0 0.16 0.043 0.278 0.129 0.355 0.086 0.076 0.22 0.114 0.4 0.114h0.376v0.438h-2.805v-0.438h0.316c0.198 0 0.347-0.039 0.444-0.117s0.146-0.179 0.146-0.3v-2.535c0-0.536-0.094-0.926-0.283-1.168-0.188-0.243-0.442-0.364-0.761-0.364-0.413 0-0.73 0.141-0.952 0.423-0.315 0.398-0.473 0.864-0.473 1.396v2.195c0 0.168 0.037 0.284 0.111 0.347 0.105 0.082 0.269 0.123 0.491 0.123h0.281v0.438h-2.781v-0.438h0.418c0.157 0 0.277-0.039 0.362-0.117 0.084-0.078 0.126-0.178 0.126-0.299v-3.6c0-0.199-0.051-0.348-0.153-0.445s-0.306-0.16-0.612-0.188v-0.407z"/></g></g><g transform="matrix(0,1,-1,0,614.443,190.358)"><path stroke-linejoin="round" d="m0 457.82h21.26" stroke="#000" stroke-linecap="round" stroke-miterlimit="3" stroke-width="0.72" fill="none"/></g><g transform="matrix(0,1,-1,0,494.244,188.94)"><path stroke-linejoin="round" d="m0 457.82h24.09" stroke="#000" stroke-linecap="round" stroke-miterlimit="3" stroke-width="0.72" fill="none"/></g><g transform="translate(36.5783,-254.137)"><path stroke-linejoin="round" d="m6.52 451.01-6.521 3.41 6.521 3.4" stroke="#000" stroke-linecap="round" stroke-miterlimit="3" stroke-width="0.72" fill="none"/></g><g transform="translate(36.5783,-257.539)"><path stroke-linejoin="round" d="m-0.001 457.82h120.051" stroke="#000" stroke-linecap="round" stroke-miterlimit="3" stroke-width="0.72" fill="none"/></g><g transform="matrix(-1,0,0,-1,156.626,654.695)"><path stroke-linejoin="round" d="m6.52 451.01-6.52 3.41 6.52 3.4" stroke="#000" stroke-linecap="round" stroke-miterlimit="3" stroke-width="0.72" fill="none"/></g><g transform="translate(41.0339,-239.114)"><desc>24.0mm</desc><rect height="20" width="110.069" y="437.818" x="0" fill="none"/><g enable-background="new    "><path d="m34.574 450.137c-0.179 0.23 0.704 0.346 2.649 0.346 0.292 0 0.5-0.076 0.625-0.229 0.124-0.151 0.266-0.573 0.426-1.264h0.406l-0.191 2.43h-5.246v-0.316l1.703-1.94c0.948-1.031 1.518-1.68 1.708-1.945 0.273-0.379 0.472-0.745 0.597-1.099s0.188-0.675 0.188-0.965c0-0.48-0.133-0.858-0.397-1.134-0.266-0.275-0.634-0.413-1.105-0.413-0.531 0-0.963 0.127-1.299 0.381s-0.503 0.523-0.503 0.809c0 0.098 0.025 0.172 0.077 0.223 0.047 0.051 0.149 0.096 0.306 0.135 0.396 0.094 0.594 0.324 0.594 0.691 0 0.199-0.066 0.364-0.2 0.495s-0.303 0.196-0.511 0.196c-0.239 0-0.448-0.11-0.628-0.331s-0.27-0.509-0.27-0.864c0-0.398 0.103-0.761 0.308-1.087s0.514-0.594 0.928-0.803 0.859-0.313 1.335-0.313c0.473 0 0.911 0.102 1.315 0.305s0.708 0.47 0.911 0.8 0.305 0.691 0.305 1.082c0 0.27-0.051 0.543-0.152 0.82-0.102 0.277-0.25 0.537-0.444 0.779-0.335 0.418-0.68 0.775-1.035 1.072l-1.543 1.302c-0.393 0.327-0.678 0.607-0.857 0.837z"/><path d="m43.933 443.295h0.382v5.539h1.352v0.5h-1.352v1.249c0 0.11 0.043 0.198 0.129 0.265 0.125 0.09 0.271 0.135 0.435 0.135h0.499v0.438h-3.258v-0.438h0.604c0.203 0 0.353-0.043 0.448-0.129s0.144-0.211 0.144-0.376v-1.144h-3.32v-0.569l3.937-5.47zm-0.618 1.59-2.833 3.949h2.833v-3.949z"/><path d="m47.698 450.139c0.196 0 0.362 0.07 0.5 0.212 0.137 0.141 0.206 0.309 0.206 0.505 0 0.204-0.068 0.376-0.206 0.517-0.137 0.142-0.306 0.212-0.505 0.212-0.196 0-0.363-0.07-0.502-0.212-0.139-0.141-0.208-0.311-0.208-0.511s0.069-0.37 0.208-0.511c0.138-0.142 0.307-0.212 0.507-0.212z"/><path d="m52.716 443.139c0.762 0 1.397 0.297 1.905 0.891 0.629 0.731 0.944 1.839 0.944 3.323 0 1.379-0.273 2.43-0.821 3.15-0.547 0.721-1.208 1.081-1.981 1.081-0.746 0-1.37-0.303-1.87-0.908-0.625-0.762-0.938-1.862-0.938-3.3 0-1.367 0.295-2.455 0.885-3.265 0.473-0.648 1.099-0.972 1.876-0.972zm0.037 0.422c-0.516 0-0.918 0.247-1.208 0.741-0.289 0.494-0.434 1.519-0.434 3.073 0 1.52 0.149 2.533 0.448 3.041s0.701 0.762 1.205 0.762c0.508 0 0.899-0.234 1.173-0.703 0.324-0.559 0.486-1.578 0.486-3.059 0-1.531-0.152-2.557-0.457-3.076-0.304-0.519-0.709-0.779-1.213-0.779z"/><path d="m56.762 445.928 1.586-0.102c0.087 0.408 0.144 0.796 0.172 1.165 0.297-0.427 0.593-0.729 0.89-0.902 0.297-0.176 0.623-0.263 0.978-0.263 0.378 0 0.691 0.099 0.937 0.298 0.246 0.197 0.435 0.521 0.568 0.967 0.262-0.423 0.553-0.74 0.873-0.95s0.669-0.314 1.048-0.314c0.5 0 0.875 0.148 1.125 0.446 0.32 0.391 0.48 0.896 0.48 1.513v2.728c0 0.165 0.041 0.276 0.123 0.335 0.109 0.09 0.271 0.135 0.485 0.135h0.275v0.438h-2.758v-0.438h0.275c0.234 0 0.397-0.039 0.491-0.117 0.094-0.079 0.141-0.196 0.141-0.353v-2.733c0-0.407-0.1-0.723-0.298-0.946s-0.46-0.335-0.784-0.335c-0.246 0-0.468 0.065-0.667 0.196-0.199 0.132-0.355 0.318-0.468 0.562-0.167 0.349-0.251 0.645-0.251 0.888v2.369c0 0.16 0.043 0.278 0.129 0.355 0.086 0.076 0.22 0.114 0.4 0.114h0.376v0.438h-2.805v-0.438h0.315c0.199 0 0.347-0.039 0.444-0.117 0.098-0.078 0.146-0.179 0.146-0.3v-2.535c0-0.536-0.094-0.926-0.283-1.168-0.188-0.243-0.442-0.364-0.762-0.364-0.412 0-0.729 0.141-0.951 0.423-0.315 0.398-0.473 0.864-0.473 1.396v2.195c0 0.168 0.037 0.284 0.111 0.347 0.105 0.082 0.269 0.123 0.491 0.123h0.281v0.438h-2.781v-0.438h0.418c0.157 0 0.277-0.039 0.362-0.117s0.126-0.178 0.126-0.299v-3.6c0-0.199-0.051-0.348-0.153-0.445s-0.306-0.16-0.612-0.188v-0.407z"/><path d="m67.433 445.928 1.586-0.102c0.087 0.408 0.144 0.796 0.172 1.165 0.296-0.427 0.593-0.729 0.89-0.902 0.296-0.176 0.622-0.263 0.978-0.263 0.378 0 0.691 0.099 0.937 0.298 0.246 0.197 0.436 0.521 0.568 0.967 0.261-0.423 0.552-0.74 0.873-0.95 0.32-0.21 0.669-0.314 1.048-0.314 0.5 0 0.875 0.148 1.125 0.446 0.32 0.391 0.48 0.896 0.48 1.513v2.728c0 0.165 0.041 0.276 0.123 0.335 0.109 0.09 0.271 0.135 0.485 0.135h0.275v0.438h-2.758v-0.438h0.275c0.234 0 0.397-0.039 0.491-0.117 0.093-0.079 0.14-0.196 0.14-0.353v-2.733c0-0.407-0.1-0.723-0.298-0.946-0.199-0.224-0.46-0.335-0.784-0.335-0.246 0-0.468 0.065-0.667 0.196-0.199 0.132-0.355 0.318-0.468 0.562-0.167 0.349-0.251 0.645-0.251 0.888v2.369c0 0.16 0.043 0.278 0.129 0.355 0.086 0.076 0.22 0.114 0.4 0.114h0.376v0.438h-2.805v-0.438h0.316c0.198 0 0.347-0.039 0.444-0.117s0.146-0.179 0.146-0.3v-2.535c0-0.536-0.094-0.926-0.283-1.168-0.188-0.243-0.442-0.364-0.761-0.364-0.413 0-0.73 0.141-0.952 0.423-0.315 0.398-0.473 0.864-0.473 1.396v2.195c0 0.168 0.037 0.284 0.111 0.347 0.105 0.082 0.269 0.123 0.491 0.123h0.281v0.438h-2.781v-0.438h0.418c0.157 0 0.277-0.039 0.362-0.117 0.084-0.078 0.126-0.178 0.126-0.299v-3.6c0-0.199-0.051-0.348-0.153-0.445s-0.306-0.16-0.612-0.188v-0.407z"/></g></g><g transform="translate(26.9478,-233.747)"><path stroke-linejoin="round" d="m0 457.82h21.26" stroke="#000" stroke-linecap="round" stroke-miterlimit="3" stroke-width="0.72" fill="none"/></g><g transform="translate(25.5305,-127.198)"><path stroke-linejoin="round" d="m-0.001 457.82h24.33" stroke="#000" stroke-linecap="round" stroke-miterlimit="3" stroke-width="0.72" fill="none"/></g><g transform="matrix(0,-1,1,0,-417.696,330.673)"><path stroke-linejoin="round" d="m6.52 451.01-6.52 3.41 6.52 3.399" stroke="#000" stroke-linecap="round" stroke-miterlimit="3" stroke-width="0.72" fill="none"/></g><g transform="matrix(.000565487 -1 1 .000565487 -421.098 330.414)"><path stroke-linejoin="round" d="m0.001 457.82 106.6-0.001" stroke="#000" stroke-linecap="round" stroke-miterlimit="3" stroke-width="0.72" fill="none"/></g><g transform="matrix(0,1,-1,0,491.136,223.948)"><path stroke-linejoin="round" d="m6.52 451.01-6.52 3.411 6.52 3.399" stroke="#000" stroke-linecap="round" stroke-miterlimit="3" stroke-width="0.72" fill="none"/></g><g transform="matrix(0,-1,1,0,-421.038,331.24)"><desc>21.5mm</desc><rect transform="matrix(-2.547107e-6,-1,1,-2.547107e-6,-393.3627,502.2742)" height="108.91" width="20" y="393.363" x="44.455" fill="none"/><g enable-background="new    "><path d="m33.993 450.137c-0.179 0.23 0.704 0.346 2.649 0.346 0.292 0 0.5-0.076 0.625-0.229 0.124-0.151 0.267-0.573 0.426-1.264h0.407l-0.191 2.43h-5.246v-0.316l1.702-1.94c0.948-1.031 1.518-1.68 1.709-1.945 0.273-0.379 0.473-0.745 0.597-1.099 0.125-0.354 0.188-0.675 0.188-0.965 0-0.48-0.133-0.858-0.397-1.134-0.266-0.275-0.634-0.413-1.105-0.413-0.531 0-0.963 0.127-1.299 0.381s-0.503 0.523-0.503 0.809c0 0.098 0.025 0.172 0.077 0.223 0.047 0.051 0.148 0.096 0.305 0.135 0.396 0.094 0.595 0.324 0.595 0.691 0 0.199-0.066 0.364-0.2 0.495-0.133 0.131-0.303 0.196-0.511 0.196-0.239 0-0.448-0.11-0.628-0.331-0.181-0.221-0.271-0.509-0.271-0.864 0-0.398 0.103-0.761 0.308-1.087s0.514-0.594 0.928-0.803 0.859-0.313 1.336-0.313c0.473 0 0.91 0.102 1.314 0.305s0.708 0.47 0.911 0.8 0.305 0.691 0.305 1.082c0 0.27-0.051 0.543-0.151 0.82-0.102 0.277-0.25 0.537-0.445 0.779-0.335 0.418-0.68 0.775-1.034 1.072l-1.544 1.302c-0.393 0.328-0.677 0.607-0.857 0.837z"/><path d="m42.852 443.296v7.313c0 0.109 0.039 0.193 0.117 0.252 0.113 0.082 0.253 0.123 0.417 0.123h1.138v0.438h-4.219v-0.438h0.973c0.203 0 0.354-0.048 0.451-0.144s0.146-0.224 0.146-0.384v-5.521c0-0.113-0.045-0.209-0.135-0.287s-0.205-0.117-0.346-0.117h-1.301v-0.406c0.61-0.078 1.104-0.183 1.483-0.314 0.38-0.131 0.715-0.302 1.004-0.514h0.272z"/><path d="m47.117 450.139c0.196 0 0.362 0.07 0.499 0.212 0.138 0.141 0.206 0.309 0.206 0.505 0 0.204-0.068 0.376-0.206 0.517-0.137 0.142-0.305 0.212-0.505 0.212-0.196 0-0.363-0.07-0.503-0.212-0.139-0.141-0.208-0.311-0.208-0.511s0.069-0.37 0.208-0.511c0.14-0.141 0.309-0.212 0.509-0.212z"/><path d="m50.399 443.139c0.988 0.229 1.795 0.344 2.42 0.344 0.293 0 0.568-0.028 0.827-0.085 0.258-0.058 0.451-0.123 0.58-0.198 0.066-0.035 0.109-0.053 0.129-0.053 0.039 0 0.059 0.029 0.059 0.088 0 0.137-0.088 0.318-0.264 0.543-0.177 0.225-0.416 0.403-0.719 0.537-0.303 0.133-0.651 0.199-1.047 0.199-0.458 0-1.003-0.07-1.636-0.211l-0.189 2.236c0.297-0.149 0.58-0.261 0.85-0.335 0.27-0.075 0.525-0.112 0.768-0.112 0.766 0 1.41 0.254 1.932 0.762 0.521 0.509 0.782 1.136 0.782 1.882 0 0.828-0.277 1.51-0.832 2.046-0.555 0.535-1.273 0.803-2.156 0.803-0.676 0-1.226-0.192-1.649-0.577s-0.636-0.843-0.636-1.374c0-0.32 0.067-0.567 0.202-0.741s0.307-0.261 0.518-0.261c0.207 0 0.375 0.069 0.506 0.208s0.196 0.319 0.196 0.542c0 0.168-0.032 0.299-0.096 0.393s-0.181 0.172-0.352 0.234c-0.171 0.066-0.256 0.143-0.256 0.229 0 0.125 0.059 0.263 0.175 0.413 0.117 0.15 0.294 0.273 0.53 0.369 0.235 0.096 0.506 0.144 0.81 0.144 0.597 0 1.052-0.186 1.366-0.557 0.313-0.37 0.471-0.974 0.471-1.81 0-0.762-0.166-1.317-0.498-1.669-0.333-0.352-0.757-0.527-1.272-0.527-0.234 0-0.469 0.043-0.703 0.129s-0.469 0.215-0.703 0.387c-0.027 0.274-0.076 0.457-0.146 0.55-0.07 0.092-0.161 0.138-0.271 0.138-0.078 0-0.141-0.027-0.188-0.082-0.047-0.056-0.07-0.132-0.07-0.229 0-0.173 0.08-0.343 0.241-0.512 0.047-0.051 0.08-0.096 0.1-0.135l0.136-1.724c0.052-0.681 0.082-1.342 0.085-1.984z"/><path d="m56.182 445.928 1.586-0.102c0.087 0.408 0.144 0.796 0.172 1.165 0.297-0.427 0.593-0.729 0.89-0.902 0.297-0.176 0.623-0.263 0.979-0.263 0.378 0 0.69 0.099 0.936 0.298 0.246 0.197 0.436 0.521 0.568 0.967 0.262-0.423 0.553-0.74 0.873-0.95s0.67-0.314 1.049-0.314c0.5 0 0.874 0.148 1.124 0.446 0.32 0.391 0.48 0.896 0.48 1.513v2.728c0 0.165 0.041 0.276 0.123 0.335 0.108 0.09 0.271 0.135 0.485 0.135h0.274v0.438h-2.758v-0.438h0.274c0.234 0 0.398-0.039 0.491-0.117 0.094-0.079 0.141-0.196 0.141-0.353v-2.733c0-0.407-0.1-0.723-0.298-0.946-0.199-0.224-0.461-0.335-0.784-0.335-0.246 0-0.468 0.065-0.667 0.196-0.199 0.132-0.355 0.318-0.469 0.562-0.167 0.349-0.251 0.645-0.251 0.888v2.369c0 0.16 0.043 0.278 0.13 0.355 0.086 0.076 0.219 0.114 0.4 0.114h0.376v0.438h-2.805v-0.438h0.315c0.199 0 0.348-0.039 0.444-0.117 0.098-0.078 0.146-0.179 0.146-0.3v-2.535c0-0.536-0.095-0.926-0.283-1.168-0.188-0.243-0.442-0.364-0.762-0.364-0.412 0-0.729 0.141-0.951 0.423-0.315 0.398-0.473 0.864-0.473 1.396v2.195c0 0.168 0.037 0.284 0.111 0.347 0.104 0.082 0.269 0.123 0.491 0.123h0.28v0.438h-2.781v-0.438h0.418c0.157 0 0.277-0.039 0.362-0.117 0.084-0.078 0.126-0.178 0.126-0.299v-3.6c0-0.199-0.052-0.348-0.153-0.445s-0.307-0.16-0.612-0.188v-0.407z"/><path d="m66.853 445.928 1.586-0.102c0.086 0.408 0.144 0.796 0.172 1.165 0.296-0.427 0.593-0.729 0.89-0.902 0.296-0.176 0.622-0.263 0.978-0.263 0.379 0 0.691 0.099 0.937 0.298 0.246 0.197 0.436 0.521 0.568 0.967 0.261-0.423 0.552-0.74 0.872-0.95s0.67-0.314 1.049-0.314c0.5 0 0.875 0.148 1.125 0.446 0.32 0.391 0.48 0.896 0.48 1.513v2.728c0 0.165 0.041 0.276 0.122 0.335 0.109 0.09 0.271 0.135 0.485 0.135h0.275v0.438h-2.758v-0.438h0.274c0.233 0 0.397-0.039 0.491-0.117 0.094-0.079 0.141-0.196 0.141-0.353v-2.733c0-0.407-0.1-0.723-0.299-0.946s-0.46-0.335-0.784-0.335c-0.245 0-0.468 0.065-0.667 0.196-0.199 0.132-0.354 0.318-0.468 0.562-0.167 0.349-0.251 0.645-0.251 0.888v2.369c0 0.16 0.043 0.278 0.129 0.355 0.086 0.076 0.22 0.114 0.4 0.114h0.377v0.438h-2.805v-0.438h0.315c0.198 0 0.347-0.039 0.444-0.117s0.146-0.179 0.146-0.3v-2.535c0-0.536-0.095-0.926-0.283-1.168-0.189-0.243-0.443-0.364-0.762-0.364-0.412 0-0.73 0.141-0.951 0.423-0.315 0.398-0.473 0.864-0.473 1.396v2.195c0 0.168 0.037 0.284 0.11 0.347 0.105 0.082 0.269 0.123 0.491 0.123h0.281v0.438h-2.781v-0.438h0.418c0.156 0 0.277-0.039 0.361-0.117s0.127-0.178 0.127-0.299v-3.6c0-0.199-0.052-0.348-0.154-0.445-0.102-0.098-0.306-0.16-0.611-0.188v-0.407z"/></g></g><g transform="matrix(0,1,-1,0,612.743,334.925)"><path stroke-linejoin="round" d="m0 457.82h21.26" stroke="#000" stroke-linecap="round" stroke-miterlimit="3" stroke-width="0.72" fill="none"/></g><g transform="matrix(0,1,-1,0,512.396,333.507)"><path stroke-linejoin="round" d="m0 457.82h24.09" stroke="#000" stroke-linecap="round" stroke-miterlimit="3" stroke-width="0.72" fill="none"/></g><g transform="translate(54.8617,-109.57)"><path stroke-linejoin="round" d="m6.52 451.01-6.52 3.41 6.52 3.399" stroke="#000" stroke-linecap="round" stroke-miterlimit="3" stroke-width="0.72" fill="none"/></g><g transform="translate(54.8617,-112.972)"><path stroke-linejoin="round" d="m0 457.82h100.06" stroke="#000" stroke-linecap="round" stroke-miterlimit="3" stroke-width="0.72" fill="none"/></g><g transform="matrix(-1,0,0,-1,154.783,799.262)"><path stroke-linejoin="round" d="m6.52 451.009-6.52 3.41 6.52 3.4" stroke="#000" stroke-linecap="round" stroke-miterlimit="3" stroke-width="0.72" fill="none"/></g><g transform="translate(58.4254,-94.5468)"><desc>20.0mm</desc><rect height="20" width="91.889" y="437.818" x="0" fill="none"/><g enable-background="new    "><path d="m25.494 450.136c-0.179 0.23 0.704 0.346 2.649 0.346 0.292 0 0.5-0.076 0.625-0.229 0.124-0.151 0.266-0.573 0.426-1.264h0.406l-0.191 2.43h-5.246v-0.316l1.703-1.94c0.948-1.031 1.518-1.68 1.708-1.945 0.273-0.379 0.472-0.745 0.597-1.099s0.188-0.675 0.188-0.965c0-0.48-0.133-0.858-0.397-1.134-0.266-0.275-0.634-0.413-1.105-0.413-0.531 0-0.963 0.127-1.299 0.381s-0.503 0.523-0.503 0.809c0 0.098 0.025 0.172 0.077 0.223 0.047 0.051 0.149 0.096 0.306 0.135 0.396 0.094 0.594 0.324 0.594 0.691 0 0.199-0.066 0.364-0.2 0.495s-0.303 0.196-0.511 0.196c-0.239 0-0.448-0.11-0.628-0.331s-0.27-0.509-0.27-0.864c0-0.398 0.103-0.761 0.308-1.087s0.514-0.594 0.928-0.803 0.859-0.313 1.335-0.313c0.473 0 0.911 0.102 1.315 0.305s0.708 0.47 0.911 0.8 0.305 0.691 0.305 1.082c0 0.27-0.051 0.543-0.152 0.82-0.102 0.277-0.25 0.537-0.444 0.779-0.335 0.418-0.68 0.775-1.035 1.072l-1.543 1.302c-0.393 0.328-0.678 0.607-0.857 0.837z"/><path d="m33.628 443.138c0.762 0 1.397 0.297 1.905 0.891 0.629 0.731 0.944 1.839 0.944 3.323 0 1.379-0.273 2.43-0.821 3.15-0.547 0.721-1.208 1.081-1.981 1.081-0.746 0-1.37-0.303-1.87-0.908-0.625-0.762-0.938-1.862-0.938-3.3 0-1.367 0.295-2.455 0.885-3.265 0.474-0.647 1.099-0.972 1.876-0.972zm0.038 0.422c-0.516 0-0.918 0.247-1.208 0.741-0.289 0.494-0.434 1.519-0.434 3.073 0 1.52 0.149 2.533 0.448 3.041s0.701 0.762 1.205 0.762c0.508 0 0.899-0.234 1.173-0.703 0.324-0.559 0.486-1.578 0.486-3.059 0-1.531-0.152-2.557-0.457-3.076s-0.709-0.779-1.213-0.779z"/><path d="m38.618 450.138c0.196 0 0.362 0.07 0.5 0.212 0.137 0.141 0.206 0.309 0.206 0.505 0 0.204-0.068 0.376-0.206 0.517-0.137 0.142-0.306 0.212-0.505 0.212-0.196 0-0.363-0.07-0.502-0.212-0.139-0.141-0.208-0.311-0.208-0.511s0.069-0.37 0.208-0.511c0.138-0.141 0.307-0.212 0.507-0.212z"/><path d="m43.636 443.138c0.762 0 1.397 0.297 1.905 0.891 0.629 0.731 0.944 1.839 0.944 3.323 0 1.379-0.273 2.43-0.821 3.15-0.547 0.721-1.208 1.081-1.981 1.081-0.746 0-1.37-0.303-1.87-0.908-0.625-0.762-0.938-1.862-0.938-3.3 0-1.367 0.295-2.455 0.885-3.265 0.473-0.647 1.099-0.972 1.876-0.972zm0.037 0.422c-0.516 0-0.918 0.247-1.208 0.741-0.289 0.494-0.434 1.519-0.434 3.073 0 1.52 0.149 2.533 0.448 3.041s0.701 0.762 1.205 0.762c0.508 0 0.899-0.234 1.173-0.703 0.324-0.559 0.486-1.578 0.486-3.059 0-1.531-0.152-2.557-0.457-3.076-0.304-0.519-0.709-0.779-1.213-0.779z"/><path d="m47.682 445.927 1.586-0.102c0.087 0.408 0.144 0.796 0.172 1.165 0.297-0.427 0.593-0.729 0.89-0.902 0.297-0.176 0.623-0.263 0.978-0.263 0.378 0 0.691 0.099 0.937 0.298 0.246 0.197 0.435 0.521 0.568 0.967 0.262-0.423 0.553-0.74 0.873-0.95s0.669-0.314 1.048-0.314c0.5 0 0.875 0.148 1.125 0.446 0.32 0.391 0.48 0.896 0.48 1.513v2.728c0 0.165 0.041 0.276 0.123 0.335 0.109 0.09 0.271 0.135 0.485 0.135h0.275v0.438h-2.758v-0.438h0.275c0.234 0 0.397-0.039 0.491-0.117 0.094-0.079 0.141-0.196 0.141-0.353v-2.733c0-0.407-0.1-0.723-0.298-0.946s-0.46-0.335-0.784-0.335c-0.246 0-0.468 0.065-0.667 0.196-0.199 0.132-0.355 0.318-0.468 0.562-0.167 0.349-0.251 0.645-0.251 0.888v2.369c0 0.16 0.043 0.278 0.129 0.355 0.086 0.076 0.22 0.114 0.4 0.114h0.376v0.438h-2.805v-0.438h0.315c0.199 0 0.347-0.039 0.444-0.117 0.098-0.078 0.146-0.179 0.146-0.3v-2.535c0-0.536-0.094-0.926-0.283-1.168-0.188-0.243-0.442-0.364-0.762-0.364-0.412 0-0.729 0.141-0.951 0.423-0.315 0.398-0.473 0.864-0.473 1.396v2.195c0 0.168 0.037 0.284 0.111 0.347 0.105 0.082 0.269 0.123 0.491 0.123h0.281v0.438h-2.781v-0.438h0.418c0.157 0 0.277-0.039 0.362-0.117s0.126-0.178 0.126-0.299v-3.6c0-0.199-0.051-0.348-0.153-0.445s-0.306-0.16-0.612-0.188v-0.407z"/><path d="m58.353 445.927 1.586-0.102c0.087 0.408 0.144 0.796 0.172 1.165 0.296-0.427 0.593-0.729 0.89-0.902 0.296-0.176 0.622-0.263 0.978-0.263 0.378 0 0.691 0.099 0.937 0.298 0.246 0.197 0.436 0.521 0.568 0.967 0.261-0.423 0.552-0.74 0.873-0.95 0.32-0.21 0.669-0.314 1.048-0.314 0.5 0 0.875 0.148 1.125 0.446 0.32 0.391 0.48 0.896 0.48 1.513v2.728c0 0.165 0.041 0.276 0.123 0.335 0.109 0.09 0.271 0.135 0.485 0.135h0.275v0.438h-2.758v-0.438h0.275c0.234 0 0.397-0.039 0.491-0.117 0.093-0.079 0.14-0.196 0.14-0.353v-2.733c0-0.407-0.1-0.723-0.298-0.946-0.199-0.224-0.46-0.335-0.784-0.335-0.246 0-0.468 0.065-0.667 0.196-0.199 0.132-0.355 0.318-0.468 0.562-0.167 0.349-0.251 0.645-0.251 0.888v2.369c0 0.16 0.043 0.278 0.129 0.355 0.086 0.076 0.22 0.114 0.4 0.114h0.376v0.438h-2.805v-0.438h0.316c0.198 0 0.347-0.039 0.444-0.117s0.146-0.179 0.146-0.3v-2.535c0-0.536-0.094-0.926-0.283-1.168-0.188-0.243-0.442-0.364-0.761-0.364-0.413 0-0.73 0.141-0.952 0.423-0.315 0.398-0.473 0.864-0.473 1.396v2.195c0 0.168 0.037 0.284 0.111 0.347 0.105 0.082 0.269 0.123 0.491 0.123h0.281v0.438h-2.781v-0.438h0.418c0.157 0 0.277-0.039 0.362-0.117 0.084-0.078 0.126-0.178 0.126-0.299v-3.6c0-0.199-0.051-0.348-0.153-0.445s-0.306-0.16-0.612-0.188v-0.407z"/></g></g><g transform="translate(50.2105,-86.8932)"><path stroke-linejoin="round" d="m0 457.82h21.26" stroke="#000" stroke-linecap="round" stroke-miterlimit="3" stroke-width="0.72" fill="none"/></g><g transform="translate(48.7931,-33.035)"><path stroke-linejoin="round" d="m0 457.82h24.33" stroke="#000" stroke-linecap="round" stroke-miterlimit="3" stroke-width="0.72" fill="none"/></g><g transform="matrix(0,-1,1,0,-394.169,424.783)"><path stroke-linejoin="round" d="m6.521 451.01-6.521 3.41l6.521 3.4" stroke="#000" stroke-linecap="round" stroke-miterlimit="3" stroke-width="0.72" fill="none"/></g><g transform="matrix(0,-1,1,0,-397.57,424.783)"><path stroke-linejoin="round" d="m0 457.82h53.86" stroke="#000" stroke-linecap="round" stroke-miterlimit="3" stroke-width="0.72" fill="none"/></g><g transform="matrix(0,1,-1,0,514.664,371.066)"><path stroke-linejoin="round" d="m6.521 451.01-6.521 3.41l6.521 3.399" stroke="#000" stroke-linecap="round" stroke-miterlimit="3" stroke-width="0.72" fill="none"/></g><g transform="matrix(0,-1,1,0,-397.775,425.096)"><desc>11.0mm</desc><rect transform="matrix(-2.547107e-6,-1,1,-2.547107e-6,-420.2917,475.3447)" height="55.053" width="20" y="420.291" x="17.526" fill="none"/><g enable-background="new    "><path d="m9.258 443.295v7.313c0 0.109 0.039 0.193 0.117 0.252 0.113 0.082 0.253 0.123 0.417 0.123h1.138v0.438h-4.219v-0.438h0.973c0.203 0 0.354-0.048 0.451-0.144s0.146-0.224 0.146-0.384v-5.521c0-0.113-0.045-0.209-0.135-0.287s-0.205-0.117-0.346-0.117h-1.299v-0.406c0.61-0.078 1.104-0.183 1.483-0.314 0.38-0.131 0.715-0.302 1.004-0.514h0.27z"/><path d="m15.27 443.295v7.313c0 0.109 0.039 0.193 0.117 0.252 0.113 0.082 0.253 0.123 0.417 0.123h1.138v0.438h-4.219v-0.438h0.973c0.203 0 0.354-0.048 0.451-0.144s0.146-0.224 0.146-0.384v-5.521c0-0.113-0.045-0.209-0.135-0.287s-0.205-0.117-0.346-0.117h-1.301v-0.406c0.61-0.078 1.104-0.183 1.483-0.314 0.38-0.131 0.715-0.302 1.004-0.514h0.272z"/><path d="m19.536 450.139c0.196 0 0.362 0.07 0.499 0.212 0.138 0.141 0.206 0.309 0.206 0.505 0 0.204-0.068 0.376-0.206 0.517-0.137 0.142-0.305 0.212-0.505 0.212-0.196 0-0.363-0.07-0.503-0.212-0.139-0.141-0.208-0.311-0.208-0.511s0.069-0.37 0.208-0.511c0.14-0.142 0.309-0.212 0.509-0.212z"/><path d="m24.554 443.139c0.762 0 1.396 0.297 1.904 0.891 0.63 0.731 0.944 1.839 0.944 3.323 0 1.379-0.273 2.43-0.821 3.15-0.547 0.721-1.207 1.081-1.98 1.081-0.746 0-1.369-0.303-1.869-0.908-0.626-0.762-0.938-1.862-0.938-3.3 0-1.367 0.295-2.455 0.886-3.265 0.472-0.648 1.097-0.972 1.874-0.972zm0.037 0.422c-0.516 0-0.918 0.247-1.208 0.741-0.289 0.494-0.434 1.519-0.434 3.073 0 1.52 0.149 2.533 0.448 3.041s0.701 0.762 1.205 0.762c0.508 0 0.898-0.234 1.173-0.703 0.324-0.559 0.486-1.578 0.486-3.059 0-1.531-0.152-2.557-0.457-3.076-0.304-0.519-0.709-0.779-1.213-0.779z"/><path d="m28.6 445.928 1.586-0.102c0.087 0.408 0.144 0.796 0.172 1.165 0.297-0.427 0.593-0.729 0.89-0.902 0.297-0.176 0.623-0.263 0.979-0.263 0.378 0 0.69 0.099 0.936 0.298 0.246 0.197 0.436 0.521 0.568 0.967 0.262-0.423 0.553-0.74 0.873-0.95s0.67-0.314 1.049-0.314c0.5 0 0.874 0.148 1.124 0.446 0.32 0.391 0.48 0.896 0.48 1.513v2.728c0 0.165 0.041 0.276 0.123 0.335 0.108 0.09 0.271 0.135 0.485 0.135h0.274v0.438h-2.758v-0.438h0.274c0.234 0 0.398-0.039 0.491-0.117 0.094-0.079 0.141-0.196 0.141-0.353v-2.733c0-0.407-0.1-0.723-0.298-0.946-0.199-0.224-0.461-0.335-0.784-0.335-0.246 0-0.468 0.065-0.667 0.196-0.199 0.132-0.355 0.318-0.469 0.562-0.167 0.349-0.251 0.645-0.251 0.888v2.369c0 0.16 0.043 0.278 0.13 0.355 0.086 0.076 0.219 0.114 0.4 0.114h0.376v0.438h-2.804v-0.438h0.315c0.199 0 0.348-0.039 0.444-0.117 0.098-0.078 0.146-0.179 0.146-0.3v-2.535c0-0.536-0.095-0.926-0.283-1.168-0.188-0.243-0.442-0.364-0.762-0.364-0.412 0-0.729 0.141-0.951 0.423-0.315 0.398-0.473 0.864-0.473 1.396v2.195c0 0.168 0.037 0.284 0.111 0.347 0.104 0.082 0.269 0.123 0.491 0.123h0.28v0.438h-2.778v-0.438h0.418c0.157 0 0.277-0.039 0.362-0.117 0.084-0.078 0.126-0.178 0.126-0.299v-3.6c0-0.199-0.052-0.348-0.153-0.445s-0.307-0.16-0.612-0.188v-0.407z"/><path d="m39.271 445.928 1.586-0.102c0.086 0.408 0.144 0.796 0.172 1.165 0.296-0.427 0.593-0.729 0.89-0.902 0.296-0.176 0.622-0.263 0.978-0.263 0.379 0 0.691 0.099 0.937 0.298 0.246 0.197 0.436 0.521 0.568 0.967 0.261-0.423 0.552-0.74 0.872-0.95s0.67-0.314 1.049-0.314c0.5 0 0.875 0.148 1.125 0.446 0.32 0.391 0.48 0.896 0.48 1.513v2.728c0 0.165 0.041 0.276 0.122 0.335 0.109 0.09 0.271 0.135 0.485 0.135h0.275v0.438h-2.758v-0.438h0.274c0.233 0 0.397-0.039 0.491-0.117 0.094-0.079 0.141-0.196 0.141-0.353v-2.733c0-0.407-0.1-0.723-0.299-0.946s-0.46-0.335-0.784-0.335c-0.245 0-0.468 0.065-0.667 0.196-0.199 0.132-0.354 0.318-0.468 0.562-0.167 0.349-0.251 0.645-0.251 0.888v2.369c0 0.16 0.043 0.278 0.129 0.355 0.086 0.076 0.22 0.114 0.4 0.114h0.377v0.438h-2.805v-0.438h0.315c0.198 0 0.347-0.039 0.444-0.117s0.146-0.179 0.146-0.3v-2.535c0-0.536-0.095-0.926-0.283-1.168-0.189-0.243-0.443-0.364-0.762-0.364-0.412 0-0.73 0.141-0.951 0.423-0.315 0.398-0.473 0.864-0.473 1.396v2.195c0 0.168 0.037 0.284 0.11 0.347 0.105 0.082 0.269 0.123 0.491 0.123h0.281v0.438h-2.778v-0.438h0.418c0.156 0 0.277-0.039 0.361-0.117s0.127-0.178 0.127-0.299v-3.6c0-0.199-0.052-0.348-0.154-0.445-0.102-0.098-0.306-0.16-0.611-0.188v-0.407z"/></g></g><g transform="matrix(0,1,-1,0,613.31,428.751)"><path stroke-linejoin="round" d="m0 457.82h21.26" stroke="#000" stroke-linecap="round" stroke-miterlimit="3" stroke-width="0.72" fill="none"/></g><g transform="matrix(0,1,-1,0,536.491,427.334)"><path stroke-linejoin="round" d="m0 457.82h24.09" stroke="#000" stroke-linecap="round" stroke-miterlimit="3" stroke-width="0.72" fill="none"/></g><g transform="translate(78.6728,-19.1452)"><path stroke-linejoin="round" d="m0 457.82h76.82" stroke="#000" stroke-linecap="round" stroke-miterlimit="3" stroke-width="0.72" fill="none"/></g><g transform="translate(78.6728,-15.7436)"><path stroke-linejoin="round" d="m6.52 451.01-6.52 3.41 6.521 3.399" stroke="#000" stroke-linecap="round" stroke-miterlimit="3" stroke-width="0.72" fill="none"/></g><g transform="matrix(-1,0,0,-1,155.35,893.089)"><path stroke-linejoin="round" d="m6.52 451.01-6.52 3.41 6.521 3.399" stroke="#000" stroke-linecap="round" stroke-miterlimit="3" stroke-width="0.72" fill="none"/></g><g transform="translate(81.6179 -.72)"><desc>15.0mm</desc><rect height="20" width="70.345" y="437.818" x="0" fill="none"/><g enable-background="new    "><path d="m16.908 443.295v7.313c0 0.109 0.039 0.193 0.117 0.252 0.113 0.082 0.252 0.123 0.417 0.123h1.138v0.438h-4.219v-0.438h0.973c0.203 0 0.354-0.048 0.451-0.144s0.146-0.224 0.146-0.384v-5.521c0-0.113-0.045-0.209-0.135-0.287s-0.205-0.117-0.346-0.117h-1.3v-0.406c0.61-0.078 1.104-0.183 1.484-0.314 0.379-0.131 0.714-0.302 1.003-0.514h0.271z"/><path d="m21.122 443.139c0.988 0.229 1.795 0.344 2.42 0.344 0.293 0 0.568-0.028 0.827-0.085 0.258-0.058 0.451-0.123 0.58-0.198 0.066-0.035 0.109-0.053 0.129-0.053 0.039 0 0.059 0.029 0.059 0.088 0 0.137-0.088 0.318-0.264 0.543s-0.416 0.403-0.719 0.537c-0.303 0.133-0.652 0.199-1.047 0.199-0.458 0-1.003-0.07-1.636-0.211l-0.189 2.236c0.297-0.149 0.58-0.261 0.85-0.335 0.27-0.075 0.526-0.112 0.768-0.112 0.766 0 1.41 0.254 1.931 0.762 0.522 0.509 0.783 1.136 0.783 1.882 0 0.828-0.277 1.51-0.832 2.046-0.555 0.535-1.273 0.803-2.156 0.803-0.676 0-1.226-0.192-1.649-0.577s-0.636-0.843-0.636-1.374c0-0.32 0.067-0.567 0.202-0.741s0.307-0.261 0.518-0.261c0.207 0 0.375 0.069 0.506 0.208s0.196 0.319 0.196 0.542c0 0.168-0.032 0.299-0.096 0.393s-0.181 0.172-0.352 0.234c-0.171 0.066-0.256 0.143-0.256 0.229 0 0.125 0.059 0.263 0.175 0.413 0.117 0.15 0.293 0.273 0.53 0.369 0.235 0.096 0.506 0.144 0.81 0.144 0.597 0 1.052-0.186 1.366-0.557 0.313-0.37 0.471-0.974 0.471-1.81 0-0.762-0.166-1.317-0.498-1.669-0.333-0.352-0.756-0.527-1.272-0.527-0.234 0-0.469 0.043-0.703 0.129-0.235 0.086-0.469 0.215-0.704 0.387-0.027 0.274-0.076 0.457-0.146 0.55-0.07 0.092-0.161 0.138-0.27 0.138-0.078 0-0.141-0.027-0.188-0.082-0.047-0.056-0.07-0.132-0.07-0.229 0-0.173 0.08-0.343 0.241-0.512 0.047-0.051 0.08-0.096 0.1-0.135l0.136-1.724c0.052-0.682 0.081-1.343 0.085-1.984z"/><path d="m27.848 450.139c0.196 0 0.362 0.07 0.5 0.212 0.137 0.141 0.206 0.309 0.206 0.505 0 0.204-0.068 0.376-0.206 0.517-0.137 0.142-0.306 0.212-0.505 0.212-0.196 0-0.363-0.07-0.502-0.212-0.139-0.141-0.208-0.311-0.208-0.511s0.069-0.37 0.208-0.511c0.137-0.142 0.307-0.212 0.507-0.212z"/><path d="m32.866 443.139c0.762 0 1.397 0.297 1.905 0.891 0.629 0.731 0.944 1.839 0.944 3.323 0 1.379-0.273 2.43-0.821 3.15-0.547 0.721-1.208 1.081-1.981 1.081-0.746 0-1.37-0.303-1.87-0.908-0.625-0.762-0.938-1.862-0.938-3.3 0-1.367 0.295-2.455 0.885-3.265 0.473-0.648 1.099-0.972 1.876-0.972zm0.037 0.422c-0.516 0-0.918 0.247-1.208 0.741-0.289 0.494-0.434 1.519-0.434 3.073 0 1.52 0.149 2.533 0.448 3.041s0.701 0.762 1.205 0.762c0.508 0 0.899-0.234 1.173-0.703 0.324-0.559 0.486-1.578 0.486-3.059 0-1.531-0.152-2.557-0.457-3.076-0.304-0.52-0.709-0.779-1.213-0.779z"/><path d="m36.912 445.928 1.586-0.102c0.087 0.408 0.144 0.796 0.172 1.165 0.297-0.427 0.593-0.729 0.89-0.902 0.297-0.176 0.623-0.263 0.978-0.263 0.378 0 0.691 0.099 0.937 0.298 0.246 0.197 0.435 0.521 0.568 0.967 0.262-0.423 0.553-0.74 0.873-0.95s0.669-0.314 1.048-0.314c0.5 0 0.875 0.148 1.125 0.446 0.32 0.391 0.48 0.896 0.48 1.513v2.728c0 0.165 0.041 0.276 0.123 0.335 0.109 0.09 0.271 0.135 0.485 0.135h0.275v0.438h-2.758v-0.438h0.275c0.234 0 0.397-0.039 0.491-0.117 0.094-0.079 0.141-0.196 0.141-0.353v-2.733c0-0.407-0.1-0.723-0.298-0.946s-0.46-0.335-0.784-0.335c-0.246 0-0.468 0.065-0.667 0.196-0.199 0.132-0.355 0.318-0.468 0.562-0.167 0.349-0.251 0.645-0.251 0.888v2.369c0 0.16 0.043 0.278 0.129 0.355 0.086 0.076 0.22 0.114 0.4 0.114h0.376v0.438h-2.805v-0.438h0.315c0.199 0 0.347-0.039 0.444-0.117 0.098-0.078 0.146-0.179 0.146-0.3v-2.535c0-0.536-0.094-0.926-0.283-1.168-0.188-0.243-0.442-0.364-0.762-0.364-0.412 0-0.729 0.141-0.951 0.423-0.315 0.398-0.473 0.864-0.473 1.396v2.195c0 0.168 0.037 0.284 0.111 0.347 0.105 0.082 0.269 0.123 0.491 0.123h0.281v0.438h-2.781v-0.438h0.418c0.157 0 0.277-0.039 0.362-0.117s0.126-0.178 0.126-0.299v-3.6c0-0.199-0.051-0.348-0.153-0.445s-0.306-0.16-0.612-0.188v-0.407z"/><path d="m47.582 445.928 1.586-0.102c0.087 0.408 0.144 0.796 0.172 1.165 0.296-0.427 0.593-0.729 0.89-0.902 0.296-0.176 0.622-0.263 0.978-0.263 0.378 0 0.691 0.099 0.937 0.298 0.246 0.197 0.436 0.521 0.568 0.967 0.261-0.423 0.552-0.74 0.873-0.95 0.32-0.21 0.669-0.314 1.048-0.314 0.5 0 0.875 0.148 1.125 0.446 0.32 0.391 0.48 0.896 0.48 1.513v2.728c0 0.165 0.041 0.276 0.123 0.335 0.109 0.09 0.271 0.135 0.485 0.135h0.275v0.438h-2.758v-0.438h0.275c0.234 0 0.397-0.039 0.491-0.117 0.093-0.079 0.14-0.196 0.14-0.353v-2.733c0-0.407-0.1-0.723-0.298-0.946-0.199-0.224-0.46-0.335-0.784-0.335-0.246 0-0.468 0.065-0.667 0.196-0.199 0.132-0.355 0.318-0.468 0.562-0.167 0.349-0.251 0.645-0.251 0.888v2.369c0 0.16 0.043 0.278 0.129 0.355 0.086 0.076 0.22 0.114 0.4 0.114h0.376v0.438h-2.805v-0.438h0.316c0.198 0 0.347-0.039 0.444-0.117s0.146-0.179 0.146-0.3v-2.535c0-0.536-0.094-0.926-0.283-1.168-0.188-0.243-0.442-0.364-0.761-0.364-0.413 0-0.73 0.141-0.952 0.423-0.315 0.398-0.473 0.864-0.473 1.396v2.195c0 0.168 0.037 0.284 0.111 0.347 0.105 0.082 0.269 0.123 0.491 0.123h0.281v0.438h-2.781v-0.438h0.418c0.157 0 0.277-0.039 0.362-0.117 0.084-0.078 0.126-0.178 0.126-0.299v-3.6c0-0.199-0.051-0.348-0.153-0.445s-0.306-0.16-0.612-0.188v-0.407z"/></g></g></g></svg>
